<?xml version="1.0" standalone="no"?>
<!DOCTYPE svg PUBLIC "-//W3C//DTD SVG 1.1//EN" "http://www.w3.org/Graphics/SVG/1.1/DTD/svg11.dtd" >
<svg xmlns="http://www.w3.org/2000/svg">
<metadata></metadata>
<defs>
<font id="bodoni_stdbold" horiz-adv-x="1024" >
<font-face units-per-em="2048" ascent="1430" descent="-618" />
<missing-glyph horiz-adv-x="624" />
<glyph horiz-adv-x="2048" />
<glyph horiz-adv-x="2048" />
<glyph unicode="&#xd;" horiz-adv-x="2048" />
<glyph unicode=" "  horiz-adv-x="624" />
<glyph unicode="&#x09;" horiz-adv-x="624" />
<glyph unicode="&#xa0;" horiz-adv-x="624" />
<glyph unicode="!" horiz-adv-x="681" d="M166 137q0 67 50 117.5t118 50.5t119 -50t51 -118q0 -70 -50 -119t-120 -49q-69 0 -118.5 50t-49.5 118zM172 1178q0 79 42 132.5t126 53.5q75 0 115.5 -54t40.5 -132q0 -57 -41 -146q-76 -165 -84 -311q-8 -184 -6 -275h-62q2 91 -6 275q-8 146 -84 311q-41 89 -41 146z " />
<glyph unicode="&#x22;" horiz-adv-x="819" d="M131 1251q0 148 109 148q47 0 71.5 -31.5t24.5 -79.5q0 -44 -10 -102l-47 -283q-8 -64 -27 -81q-10 -9 -25 -9q-7 0 -12.5 1.5t-10 4.5t-7.5 6t-6 9t-4.5 9.5t-3.5 11t-3 10.5t-2.5 11.5t-1.5 10.5zM483 1251q0 148 109 148q47 0 71.5 -31.5t24.5 -79.5q0 -44 -10 -102 l-47 -283q-8 -61 -23 -77q-11 -13 -28 -13q-18 0 -29 11.5t-15 24.5t-7 31q-1 5 -1 7z" />
<glyph unicode="#" horiz-adv-x="1251" d="M76 416v145h246l59 309h-188v146h215l65 346h150l-66 -346h258l66 346h149l-65 -346h190v-146h-219l-59 -309h194v-145h-221l-78 -416h-145l78 416h-263l-77 -416h-150l78 416h-217zM471 561h260l57 309h-260z" />
<glyph unicode="$" horiz-adv-x="1251" d="M115 262q0 67 42.5 120.5t108.5 53.5q64 0 97.5 -34t33.5 -99q0 -43 -14.5 -67t-65.5 -62q-5 -4 -17.5 -11t-20 -13.5t-9.5 -12.5q-5 -23 37.5 -50t92.5 -43.5t73 -16.5v516q-153 45 -235 140t-82 237q0 127 89 238t214 140q7 2 11 9.5t5 19t0.5 22t-1.5 24t-1 18.5v100 h59v-176q59 12 179 8v170h59v-174q69 -10 135.5 -46t114 -98t47.5 -133q0 -62 -31.5 -100.5t-91.5 -38.5q-51 0 -83 36t-32 87q0 48 48 96q5 5 18 15t20 17.5t7 14.5q0 32 -56.5 61.5t-95.5 33.5v-480q94 -19 175 -70t134.5 -133.5t53.5 -177.5q0 -162 -99.5 -268.5 t-263.5 -146.5v-275h-59v269q-26 -6 -55 -9t-68 -4t-56 -2v-254h-59v254q-63 4 -124.5 24.5t-114.5 56t-86 91.5t-33 123zM276 1032q0 -75 58.5 -122.5t138.5 -63.5v403q-80 -22 -138.5 -80.5t-58.5 -136.5zM532 25q60 -8 179 8v454q-35 7 -102 24t-77 19v-505zM532 834 q26 -4 56.5 -10t66.5 -14.5t56 -12.5v471q-105 7 -179 -8v-426zM770 43q104 29 164.5 81t60.5 146q0 37 -14 67.5t-34 50.5t-53.5 37.5t-59.5 27t-64 20.5v-430z" />
<glyph unicode="%" horiz-adv-x="2048" d="M117 831q0 90 36 174t91 142.5t119 103t122 66.5t99 22q74 0 134.5 -33t88.5 -98q102 -37 172 -37q104 0 216 63t140 134q3 9 9.5 14.5t15 7t14.5 2t15.5 0t11.5 -0.5h51l-834 -1452h-104l733 1261l-4 4q-127 -86 -270 -86q-75 0 -146 21q13 -90 -15 -193t-84.5 -189.5 t-143.5 -144t-183 -57.5q-125 0 -204.5 76t-79.5 200zM352 725q0 -41 32 -72.5t73 -31.5q69 0 131.5 48t103 119.5t64.5 149.5t24 141q0 41 -8 74q-74 45 -137 102q-47 -6 -115 -101t-118 -220t-50 -209zM1126 260q0 104 47 201t119 163t159 106t167 40q111 0 168 -71.5 t57 -184.5q0 -87 -32 -179.5t-86.5 -169t-137 -126t-174.5 -49.5q-126 0 -206.5 73t-80.5 197zM1366 166q0 -111 104 -111q69 0 132.5 49t104.5 121.5t65 151t24 141.5q0 40 -9 77t-36 67t-68 30q-63 0 -140 -98.5t-127 -223.5t-50 -204z" />
<glyph unicode="&#x26;" horiz-adv-x="1593" d="M70 340q0 81 37.5 154t100.5 126t135.5 90.5t150.5 59.5q-50 80 -76.5 149.5t-26.5 147.5q0 84 58 154.5t147 108.5t184 38q84 0 152.5 -16t112 -41.5t73 -59t41.5 -66.5t12 -65q0 -57 -31.5 -108.5t-82 -87t-105 -59.5t-108.5 -36l297 -419q49 75 93 162.5t44 138.5 q0 26 -28.5 39.5t-57.5 13.5h-117v61h475v-61h-55q-70 0 -102.5 -23t-53.5 -73q-78 -191 -161 -314l192 -293h180v-61h-530l-80 125q-94 -75 -214.5 -115.5t-244.5 -40.5q-167 0 -289 104.5t-122 266.5zM375 547q0 -94 39 -160l84 -145q41 -71 88 -109.5t119 -38.5 q109 0 200 82l-375 539q-65 -13 -110 -59t-45 -109zM631 1202q0 -57 53 -137l121 -191q57 32 90.5 68.5t36.5 89.5v101q0 90 -36.5 132t-121.5 42q-54 0 -98.5 -26.5t-44.5 -78.5z" />
<glyph unicode="'" horiz-adv-x="450" d="M123 1251q0 148 108 148q47 0 72 -32t25 -79q0 -38 -11 -102l-47 -283q-8 -61 -23 -77q-12 -13 -28 -13q-7 0 -12.5 1.5t-10 4.5t-7.5 6t-6 9t-4.5 9.5t-3.5 11t-3 10.5t-2.5 11.5t-1.5 10.5z" />
<glyph unicode="(" horiz-adv-x="681" d="M63 473q0 137 40 268.5t114 248.5t155.5 212.5t188.5 196.5l29 -21q-55 -63 -96.5 -124t-70 -113.5t-47.5 -117t-29.5 -113.5t-15.5 -125.5t-6 -131t-1 -151.5q0 -77 0.5 -119t2.5 -104.5t6 -98.5t11.5 -88t18.5 -86t27 -80.5t37.5 -83.5t50 -82t64 -89.5t79.5 -94.5 l-43 -27q-67 67 -112 113t-104 114t-97.5 122.5t-80.5 126t-66 138.5t-39.5 147t-15.5 163z" />
<glyph unicode=")" horiz-adv-x="681" d="M63 -424q44 50 79.5 94.5t64 89.5t50 82t37.5 83.5t27 80.5t18.5 86t11.5 88t6 98.5t2.5 104.5t0.5 119q0 97 -1 151.5t-6 131t-15.5 125.5t-29.5 113.5t-47.5 117t-70 113.5t-96.5 124l29 21q107 -101 188.5 -196.5t155.5 -212.5t114 -248.5t40 -268.5q0 -83 -15.5 -163 t-39.5 -147t-66 -138.5t-80.5 -126t-97.5 -122.5t-104 -114t-112 -113z" />
<glyph unicode="*" horiz-adv-x="1251" d="M233 778q9 32 40.5 54.5t70.5 27.5q44 7 63.5 3t56.5 4.5t95 35.5q25 25 2 35q-58 28 -95 36.5t-57 4t-65 2.5q-38 6 -69.5 28.5t-41.5 53.5q-10 39 15 80q25 45 61 51q33 7 68 -8t59 -45q17 -22 32 -51.5t38 -54.5t76 -62q20 -10 20 14q-5 64 -16 96.5t-29.5 59.5 t-28.5 53q-14 35 -10 74t27 63q26 29 76 29q52 0 75 -29q23 -24 27 -63t-10 -74q-10 -25 -28.5 -53t-28 -60t-13.5 -96q-6 -12 6 -19t23 1q42 28 66 51t31.5 37t19.5 36t28 42q24 30 59 46t68 9q40 -10 62 -51q24 -47 14 -80q-10 -31 -41.5 -54.5t-69.5 -29.5 q-45 -7 -65 -2.5t-57 -3.5t-95 -35q-13 -4 -12.5 -13.5t14.5 -9.5q58 -27 95 -35t57 -3.5t65 -2.5q38 -6 69.5 -29.5t41.5 -54.5q9 -36 -14 -79q-25 -46 -62 -52q-33 -7 -68 9t-59 47q-16 20 -28 42t-19.5 36t-31.5 37t-66 51q-15 13 -27 6.5t-4 -23.5q4 -64 14.5 -96 t29 -60t28.5 -53q14 -35 10 -74t-27 -63q-29 -29 -75 -29q-51 0 -76 29q-23 24 -27 63t10 74q10 25 28.5 53t29 60t14.5 96q5 14 -4 17.5t-18 -9.5q-53 -36 -76 -61t-37.5 -55.5t-30.5 -51.5q-25 -30 -60 -45t-67 -8q-38 6 -63 51q-26 42 -13 80z" />
<glyph unicode="+" d="M59 373v166h371v370h166v-370h371v-166h-371v-371h-166v371h-371z" />
<glyph unicode="," horiz-adv-x="681" d="M139 113q0 74 51.5 126t124.5 52q105 0 167.5 -79.5t62.5 -186.5q0 -126 -84.5 -236t-206.5 -166l-12 53q87 43 145.5 124.5t58.5 174.5q0 70 -24 105q-9 -52 -49.5 -81.5t-96.5 -29.5q-58 0 -97.5 43t-39.5 101z" />
<glyph unicode="-" horiz-adv-x="681" d="M49 307v209h584v-209h-584z" />
<glyph unicode="." horiz-adv-x="681" d="M147 137q0 67 50.5 117.5t117.5 50.5q68 0 119 -50t51 -118q0 -70 -50 -119t-120 -49q-69 0 -118.5 50t-49.5 118z" />
<glyph unicode="/" horiz-adv-x="569" d="M-12 0l424 1399h170l-422 -1399h-172z" />
<glyph unicode="0" horiz-adv-x="1251" d="M72 682q0 112 41 231t111 219.5t175.5 165t223.5 64.5t223.5 -64.5t175.5 -165t111 -219.5t41 -231q0 -93 -24.5 -192t-73 -192t-113.5 -166.5t-153.5 -118t-186.5 -44.5t-186.5 44.5t-153.5 118t-113.5 166.5t-73 192t-24.5 192zM432 315q-1 -158 47.5 -225t143.5 -67 q94 0 142 66.5t48 225.5v729q0 84 -14 139t-42.5 81.5t-59 35.5t-74.5 9t-74.5 -9t-58.5 -35.5t-42.5 -81.5t-15.5 -139v-729z" />
<glyph unicode="1" horiz-adv-x="1251" d="M238 0v61h256v1149q0 62 -80 62h-176v61h176q57 0 120 4.5t141.5 13t119.5 11.5v-1301h247v-61h-804z" />
<glyph unicode="2" horiz-adv-x="1251" d="M80 0v182q61 46 181.5 137.5t180.5 137.5q85 65 135 112.5t91 109.5t58 135.5t17 172.5q0 80 -26 147t-84.5 111.5t-140.5 44.5q-98 0 -183 -55q-23 -14 -57.5 -45t-34.5 -49q0 -29 51 -29q79 0 131 -37t52 -112q0 -68 -45 -106t-115 -38q-82 0 -126 58t-44 141 q0 144 130.5 244t354.5 100q71 0 137 -11.5t130 -38.5t111.5 -67t76.5 -102t29 -139q0 -100 -50.5 -177.5t-144.5 -160.5q-80 -70 -184 -139t-226.5 -143.5t-195.5 -125.5h651q33 0 49.5 21t18 51t2.5 62.5t2 56.5h71l-20 -449h-983z" />
<glyph unicode="3" horiz-adv-x="1251" d="M98 225q0 74 37.5 123t110.5 49q68 0 115 -38.5t47 -104.5q0 -74 -56 -115q-8 -5 -20.5 -13t-19 -12t-12 -10.5t-5.5 -13.5q0 -30 77 -45.5t124 -15.5q123 0 188.5 79.5t65.5 219.5q0 191 -73 272.5t-243 81.5q-22 0 -61 -2t-58 -2q-23 0 -23 29t19 32q24 3 68.5 6.5 t54.5 4.5q153 15 208.5 83.5t55.5 223.5q0 141 -40.5 194.5t-149.5 53.5q-146 0 -146 -54q0 -6 6 -11.5t21 -15t23 -14.5q49 -35 49 -106q0 -64 -41 -102.5t-105 -38.5q-57 0 -97 41t-40 98q0 118 107 189t284 71q75 0 150.5 -16.5t146 -50.5t114.5 -96.5t44 -143.5 q0 -60 -26 -110t-64 -83t-94 -60t-104.5 -41.5t-106.5 -27.5v-4q47 -8 74 -13.5t72.5 -16t73.5 -20.5t66 -26.5t62 -34.5t50 -44t41 -55.5t24.5 -68t9.5 -83.5q0 -79 -35.5 -145.5t-96 -112.5t-140 -78t-167 -47t-178.5 -15q-169 0 -278 81t-109 175z" />
<glyph unicode="4" horiz-adv-x="1251" d="M45 431.5q0 8.5 5 22t18 31.5l630 877h203v-930h137q36 0 53 13.5t18 35t0.5 48.5t0.5 55h55v-357h-55q0 16 0.5 40t1 33t-1.5 24t-4 19t-8.5 12t-13.5 9t-22 4t-30 3h-41h-90v-310h162v-61h-655v61h184v310h-545q1 17 -0.5 34.5t-1.5 26zM104 432h488v694z" />
<glyph unicode="5" horiz-adv-x="1251" d="M100 258q0 62 49 98.5t113 36.5q65 0 104.5 -42.5t39.5 -106.5q0 -71 -54 -107q-6 -4 -19 -11.5t-18.5 -11.5t-10.5 -11t-5 -15t12 -20t33.5 -24.5t58.5 -21t80 -8.5q78 0 132.5 24.5t84 71.5t42 104t12.5 132q0 373 -293 373q-30 0 -63 -5t-76.5 -15t-61.5 -13 q-12 -2 -21 0t-14 9t-8 14t-4 19t-1 20t0.5 21t0.5 19l10 418q2 77 21.5 106t89.5 29h518q58 0 73 12t19 70h51v-39q0 -159 -43 -222.5t-164 -63.5h-514l-6 -346q148 57 299 57q72 0 146 -14t146 -45t127.5 -76t89.5 -112.5t34 -147.5q0 -96 -37.5 -174t-98 -127.5 t-142.5 -82.5t-166 -47t-172 -14q-176 0 -285 82t-109 207z" />
<glyph unicode="6" horiz-adv-x="1251" d="M90 555q0 131 50 254.5t138.5 221t203 172t250 115.5t274.5 44v-62q-123 -2 -224.5 -47.5t-169 -123t-107.5 -177t-50 -213.5q67 61 126 90t138 29q110 0 212.5 -53t168 -148.5t65.5 -207.5q0 -65 -21 -131.5t-66 -129.5t-108.5 -111.5t-155.5 -78t-200 -29.5 q-125 0 -227.5 52t-165.5 137t-97 187.5t-34 209.5zM444 324q0 -170 44 -233.5t169 -63.5q95 0 129.5 61.5t36.5 206.5v301q0 109 -43 147.5t-127 38.5q-71 0 -140 -51.5t-69 -91.5v-315z" />
<glyph unicode="7" horiz-adv-x="1251" d="M137 907l144 455h864v-88l-271 -445q-45 -74 -95 -201t-50 -190q0 -11 2 -24.5t4.5 -23.5t8 -27t8 -24t10.5 -28t10 -26q41 -105 41 -152q0 -85 -54.5 -124.5t-140.5 -39.5q-89 0 -133.5 50t-44.5 143q0 18 6.5 42.5t14.5 47.5t24 55.5t27 54.5t31 56.5t29.5 49.5 t28.5 47t22 36l338 547h-601h-20q-51 1 -65 -10q-18 -12 -42 -82q-3 -10 -11 -33q-14 -41 -23 -66h-62z" />
<glyph unicode="8" horiz-adv-x="1251" d="M70 340q0 66 27 122t69.5 94.5t100.5 68t115 46.5t118 27v4q-187 41 -284 116t-97 210q0 83 47.5 149.5t123 105.5t159 59t165.5 20q61 0 127 -12t132.5 -39t118.5 -64.5t85 -94.5t33 -124q0 -63 -23 -114.5t-59.5 -86t-88 -60.5t-101 -40.5t-105.5 -24.5l-4 -4 q61 -10 118 -27t115 -46.5t100.5 -68t69.5 -94.5t27 -122q0 -74 -33 -139.5t-97.5 -118t-171 -83t-243.5 -30.5t-243.5 30.5t-170.5 83t-97 118t-33 139.5zM416 225q0 -112 47 -157t151 -45q105 0 152 45t47 157v219q-1 22 -10 52.5t-29.5 69t-62 65t-97.5 26.5 q-45 0 -81.5 -18t-57.5 -44t-35 -57.5t-19 -54.5t-5 -39v-219zM455 891q0 -93 42 -129.5t117 -36.5t117.5 36.5t42.5 129.5v237q0 96 -35.5 138.5t-124.5 42.5t-124 -42.5t-35 -138.5v-237z" />
<glyph unicode="9" horiz-adv-x="1251" d="M66 891q0 104 49.5 194.5t129 150t177.5 93t196 33.5q59 0 125 -18t138.5 -62t129.5 -109t94.5 -169.5t37.5 -231.5q0 -188 -107 -363t-272 -280q-129 -82 -257 -118.5t-280 -41.5v56q180 -8 357 137q80 64 120.5 151.5t73.5 274.5q-130 -119 -264 -119q-114 0 -217 55.5 t-167 153.5t-64 213zM410 739q0 -97 39 -145.5t129 -48.5q46 0 98 28.5t84.5 64t32.5 58.5v434q0 82 -53.5 127.5t-164.5 45.5q-74 0 -119.5 -62t-45.5 -151v-351z" />
<glyph unicode=":" horiz-adv-x="681" d="M170 137q0 67 50 117.5t118 50.5t119 -50t51 -118q0 -70 -50 -119t-120 -49q-69 0 -118.5 50t-49.5 118zM170 655q0 67 50 117.5t118 50.5t119 -50t51 -118q0 -70 -50 -119t-120 -49q-69 0 -118.5 50t-49.5 118z" />
<glyph unicode=";" horiz-adv-x="681" d="M168 113q0 74 51.5 126t124.5 52q105 0 167 -79.5t62 -186.5q0 -126 -84 -236.5t-206 -165.5l-13 53q88 43 146.5 124.5t58.5 174.5q0 70 -24 105q-9 -52 -49.5 -81.5t-96.5 -29.5q-58 0 -97.5 43t-39.5 101zM199 655q0 67 50.5 117.5t117.5 50.5q68 0 119 -50t51 -118 q0 -70 -50 -119t-120 -49q-69 0 -118.5 50t-49.5 118z" />
<glyph unicode="&#x3c;" d="M29 375v160l966 444v-164l-805 -362l805 -357v-162z" />
<glyph unicode="=" d="M59 233v166h908v-166h-908zM59 512v166h908v-166h-908z" />
<glyph unicode="&#x3e;" d="M29 -66v162l805 357l-805 362v164l966 -444v-160z" />
<glyph unicode="?" horiz-adv-x="909" d="M92 1141q0 57 34 108t85 86q59 39 107 51.5t124 12.5q154 0 265.5 -91t111.5 -241q0 -49 -12.5 -91.5t-28.5 -71t-51.5 -62.5t-59 -52.5t-73.5 -54.5q-142 -105 -167 -127q-46 -43 -47 -86q0 -23 11 -65h-53q-2 8 -17 64t-21.5 90.5t-6.5 64.5q0 79 44.5 148.5 t123.5 148.5q96 96 120 127q46 59 46 104q0 43 -17.5 73t-49 46t-65.5 22.5t-75 6.5q-52 0 -112.5 -21t-67.5 -63q-1 -6 11.5 -10.5t34.5 -15.5t38 -28q36 -39 36 -94q0 -58 -38.5 -87t-98.5 -29q-59 0 -95 38.5t-36 98.5zM227 137q0 67 50.5 117.5t117.5 50.5q68 0 119 -50 t51 -118q0 -70 -50 -119t-120 -49q-69 0 -118.5 50t-49.5 118z" />
<glyph unicode="@" horiz-adv-x="1474" d="M63 682q0 148 56.5 281.5t152 228.5t227.5 151t277 56q152 0 276.5 -50.5t201.5 -133t118 -181.5t41 -203q0 -220 -139 -374q-68 -72 -161.5 -116t-188.5 -44q-55 0 -95 26t-41 78q-108 -100 -210 -100q-100 0 -154.5 67.5t-54.5 170.5q0 68 18.5 142t55 143t85.5 124 t115.5 88t138.5 33q81 0 142 -61l10 28h203l-174 -465q-2 -7 -11 -28.5t-14.5 -39.5t-5.5 -30q0 -19 13.5 -28t31.5 -9q24 0 60 15t77.5 48t77 77t59 110t23.5 139q0 38 -10.5 86t-44 111.5t-85.5 114.5t-145 87t-211 36q-153 0 -285 -75t-211 -206t-79 -285 q0 -165 77 -299.5t210.5 -210t295.5 -75.5q157 0 291.5 69t210.5 199h123q-76 -199 -246 -303.5t-389 -104.5q-197 0 -360.5 94t-258 258t-94.5 361zM582 485q0 -18 8.5 -33.5t25.5 -15.5q43 0 86.5 61.5t65.5 120.5q86 202 86 269q0 45 -37 45q-52 0 -109.5 -93t-91.5 -198 t-34 -156z" />
<glyph unicode="A" horiz-adv-x="1366" d="M4 0v61q28 0 44.5 1t44.5 6t46.5 18.5t26.5 34.5l483 1278h80l508 -1338h123v-61h-649v61h157l-110 322h-420l-53 -147q-41 -109 -41 -140q0 -14 15.5 -23t42 -11.5t48.5 -3t49 1t29 1.5v-61h-424zM365 444h368l-182 502z" />
<glyph unicode="B" horiz-adv-x="1478" d="M94 1307v61h762q70 0 141.5 -17.5t136.5 -52t108 -94.5t48 -137q1 -10 1 -20q0 -114 -87 -198q-94 -92 -315 -134v-4q64 -2 127 -14.5t126 -40.5t111 -67t77.5 -98.5t29.5 -130.5q0 -104 -61 -181.5t-160 -125.5q-47 -24 -114 -36.5t-114 -14.5t-120 -2h-691v61h140v1246 h-146zM584 61h241q33 0 58.5 8t42 19t28 33t17 39t8 48.5t2.5 50.5t-1 56t-1 54q0 53 -1 85t-6 68t-13.5 55.5t-24 40.5t-37.5 31t-54.5 18.5t-73.5 11.5t-97 3h-88v-621zM584 743h88q59 0 95 3t69 14.5t49.5 30t29.5 54t17 82t4 117.5q0 53 -0.5 82t-4.5 61.5t-8.5 47.5 t-17 31.5t-26 22t-39 11t-52 6.5t-69.5 1h-135v-564z" />
<glyph unicode="C" horiz-adv-x="1366" d="M109 696q0 77 31 171t90.5 187.5t137 170.5t180.5 125.5t210 48.5q193 0 332 -111l69 80h70v-381h-60q-33 80 -65.5 136.5t-80 108.5t-112.5 78.5t-147 26.5q-52 0 -85.5 -7t-65 -30.5t-49 -66t-31.5 -114.5t-19.5 -174.5t-5.5 -248.5q0 -424 39.5 -544.5t224.5 -120.5 q85 0 153.5 28.5t118 81.5t84 117.5t60.5 147.5h69v-406h-73l-80 76q-166 -107 -326 -107q-134 0 -257 56.5t-213.5 152.5t-144.5 231.5t-54 286.5z" />
<glyph unicode="D" horiz-adv-x="1593" d="M90 0v61h154v1246h-154v61h762q131 0 249.5 -55t203 -146.5t134.5 -215.5t50 -257q0 -134 -36 -246t-94.5 -188t-136.5 -131t-158.5 -83t-164.5 -36q-113 -10 -207 -10h-602zM588 61h194q127 0 195 49t96 142q23 75 23 203v481q0 165 -39 250q-30 65 -91.5 93t-183.5 28 h-194v-1246z" />
<glyph unicode="E" horiz-adv-x="1366" d="M82 0v61h164v1246h-146v61h1121l12 -369h-70q-65 174 -146.5 241t-234.5 67h-192v-572q76 0 123 11.5t79 43t48.5 74.5t33.5 119h68v-582h-68q-22 152 -79.5 207.5t-204.5 55.5v-603h201q67 0 121 9.5t93.5 25t71 43.5t52 56.5t38.5 73t29.5 83.5t24.5 97h63l-12 -449 h-1190z" />
<glyph unicode="F" horiz-adv-x="1251" d="M51 1307v61h1139l12 -403h-61q-60 198 -141.5 270t-231.5 72h-215v-570q76 0 123.5 11.5t79 43t48.5 74.5t34 119h67v-582h-67q-22 151 -80 207t-205 56v-605h192v-61h-690v61h154v1246h-158z" />
<glyph unicode="G" horiz-adv-x="1478" d="M96 664q0 120 37 233t102.5 202.5t150.5 157.5t186 105t204 37q163 0 318 -103l69 72h72v-395h-72q-41 159 -143.5 261.5t-220.5 102.5q-120 0 -186 -58.5t-95 -162.5q-20 -76 -20 -203v-413q0 -82 1.5 -128t11 -115.5t28.5 -121.5q25 -65 72.5 -84.5t144.5 -19.5 t144.5 46t47.5 126v258h-176v61h655v-61h-122v-211q0 -20 -52 -76t-82 -80q-47 -39 -93.5 -63.5t-134 -43t-204.5 -18.5q-174 0 -323.5 99.5t-234.5 259t-85 336.5z" />
<glyph unicode="H" horiz-adv-x="1593" d="M68 0v61h149v1246h-149v61h661v-61h-168v-576h451v576h-168v61h682v-61h-170v-1246h170v-61h-682v61h168v609h-451v-609h170v-61h-663z" />
<glyph unicode="I" horiz-adv-x="796" d="M66 0v61h151v1246h-151v61h667v-61h-172v-1246h172v-61h-667z" />
<glyph unicode="J" horiz-adv-x="909" d="M-47 -8q0 69 40.5 110t108.5 41q59 0 100.5 -40.5t41.5 -100.5q0 -79 -51 -139q20 -23 67 -23q21 0 31.5 2.5t23.5 16t18.5 39.5t11 74.5t7.5 120.5t2 177v1037h-159v61h653v-61h-150v-1047q0 -222 -136 -357.5t-355 -135.5q-103 0 -178.5 61.5t-75.5 163.5z" />
<glyph unicode="K" horiz-adv-x="1593" d="M76 0v61h157v1246h-153v61h674v-61h-176v-1246h172v-61h-674zM600 721q0 12 7 25t14 20.5t21.5 20.5t19.5 18l417 432q35 35 35 43q0 27 -80 27h-100v61h498v-61h-150q-41 0 -68 -31l-356 -371l574 -844h147v-61h-721v61h166l-389 578q-35 55 -35 82z" />
<glyph unicode="L" horiz-adv-x="1251" d="M51 0v61h139v1246h-139v61h668v-61h-184v-1246h229q67 0 122.5 22.5t93 57t70.5 89t53 103.5t42 116h57l-20 -449h-1131z" />
<glyph unicode="M" horiz-adv-x="1705" d="M45 0v61q93 0 114 5q52 11 63 66q5 22 5 52v1123h-182v61h576l237 -825l248 825h555v-61h-170v-1246h170v-61h-682v61h182v1235h-4l-399 -1296h-74l-391 1300h-4v-1116q0 -26 3.5 -46t11 -33t18 -22t24.5 -13.5t30.5 -6.5t36 -2h41.5h27v-61h-436z" />
<glyph unicode="N" horiz-adv-x="1478" d="M61 0v61h99q48 3 60.5 28t12.5 79v1012q0 13 0.5 34t0.5 28.5t-1.5 21t-5.5 18t-11 11.5t-19 8.5t-28.5 3.5t-39.5 2h-68v61h541l576 -811v690q0 28 -45 44t-91 16h-57v61h432v-61h-86q-92 0 -92 -60v-1278h-47l-877 1219v-1051q0 -70 80 -76h117v-61h-451z" />
<glyph unicode="O" horiz-adv-x="1593" d="M96 698q0 134 47.5 251t123 197.5t169 139t186.5 86t175 27.5q83 0 176 -27.5t187 -86t169 -139t122.5 -197.5t47.5 -251q0 -199 -91 -366t-252.5 -265t-358.5 -98q-147 0 -277.5 57.5t-223 155.5t-146.5 232.5t-54 283.5zM502 539q0 -72 0.5 -118t3 -98t7 -82t12.5 -64 t19 -52t28 -37.5t37.5 -28t49 -16t61.5 -10t77 -2.5q73 0 120 6.5t82 32t52.5 54.5t28 95.5t12.5 132.5t2 187v344q0 188 -28.5 285t-89.5 133t-179 36t-178.5 -36t-88.5 -133t-28 -285v-344z" />
<glyph unicode="P" horiz-adv-x="1366" d="M78 0v61h153v1246h-149v61h758q126 0 223.5 -31.5t153.5 -83.5t84 -111.5t28 -123.5q0 -68 -22.5 -125t-59.5 -96t-90 -69t-108 -47.5t-119.5 -28.5t-119.5 -15t-112 -4h-123v-572h185v-61h-682zM575 694h142q130 0 180.5 48.5t50.5 154.5v221q0 61 -12 98t-42 57t-70 27 t-107 7h-142v-613z" />
<glyph unicode="Q" horiz-adv-x="1593" d="M96 698q0 134 47.5 251t123 197.5t169 139t186.5 86t175 27.5q83 0 176 -27.5t187 -86t169 -139t122.5 -197.5t47.5 -251q0 -251 -141 -444t-369 -258l-8 -131q-1 -10 -1 -20q0 -91 52 -151q56 -65 170 -65h172v-51q-73 -18 -180 -18q-145 0 -251.5 17t-166 42 t-96.5 65.5t-49 76t-17 83.5l-16 154q-224 66 -363 259t-139 441zM502 539q0 -72 0.5 -118t3 -98t7 -82t12.5 -64t19 -52t28 -37.5t37.5 -28t49 -16t61.5 -10t77 -2.5q73 0 120 6.5t82 32t52.5 54.5t28 95.5t12.5 132.5t2 187v344q0 188 -28.5 285t-89.5 133t-179 36 t-178.5 -36t-88.5 -133t-28 -285v-344z" />
<glyph unicode="R" horiz-adv-x="1478" d="M68 1307v61h813q64 0 122.5 -11t113 -37t95 -63.5t64.5 -94t24 -126.5q0 -64 -31.5 -116.5t-78.5 -84.5t-112 -56t-120 -35t-114 -17v-4q212 -39 307.5 -126.5t95.5 -236.5q0 -130 8 -190.5t29 -83.5q20 -20 68 -20q37 0 90 12l12 -43q-51 -27 -118.5 -45.5t-121.5 -18.5 q-186 0 -260.5 95t-79.5 333q-2 125 -21 187t-61.5 86t-127.5 24h-89v-635h170v-61h-673v61h159v1246h-163zM575 764h87q157 0 211.5 36t54.5 142v199q0 11 1 31q1 13 1 22v8q0 10 -2 25.5t-7 23.5t-14.5 19t-25 16t-37 11t-52 8t-69.5 2h-148v-543z" />
<glyph unicode="S" horiz-adv-x="1138" d="M100 -12v397h74q21 -73 56.5 -135t84.5 -112t115 -78.5t141 -28.5q82 0 146.5 24.5t102.5 64.5t57.5 87.5t19.5 97.5q0 37 -10.5 66t-34.5 50.5t-47.5 36.5t-65.5 28.5t-71.5 21t-83 19.5t-82.5 20q-69 18 -119 36t-106 52.5t-91 79t-58.5 115t-23.5 159.5 q0 114 59 208.5t158 148t214 53.5q128 0 276 -90l76 59h63v-362h-65q-24 132 -125 231.5t-230 99.5q-44 0 -90 -12.5t-87 -36.5t-67 -63.5t-26 -87.5q0 -44 14 -75t42.5 -50.5t57 -30t72.5 -20.5q264 -58 371 -105q223 -96 223 -399q0 -93 -28.5 -178t-85 -155.5 t-151 -112.5t-214.5 -42q-156 0 -282 97l-105 -78h-74z" />
<glyph unicode="T" horiz-adv-x="1366" d="M41 924l20 444h1246l20 -444h-55q-16 60 -29.5 101t-33.5 86.5t-41 74.5t-51.5 56.5t-67 41.5t-85.5 20q-30 4 -64 5q-21 0 -44 -2v-1246h168v-61h-680v61h168v1246q-22 2 -44 2q-34 -1 -64 -5q-49 -6 -85.5 -20t-67 -41.5t-51.5 -56.5t-41 -74.5t-33.5 -86.5t-29.5 -101 h-55z" />
<glyph unicode="U" horiz-adv-x="1478" d="M53 1307v61h678v-61h-172v-992q0 -75 11.5 -124t41.5 -87t85 -55t141 -18h6q191 0 289 135q22 24 33 89t12.5 121t1.5 167v688q0 32 -25 54t-68 22h-92v61h432v-61h-122q-64 0 -64 -76v-842q0 -96 -15.5 -166t-64.5 -123q-60 -66 -160 -98.5t-268 -32.5 q-261 0 -389.5 104t-128.5 345v889h-162z" />
<glyph unicode="V" horiz-adv-x="1366" d="M14 1307v61h635v-61h-157l342 -842l276 797q1 5 1.5 11t-7 12t-19 11t-35.5 8t-57 3h-69v61h428v-61h-84q-28 0 -44 -12t-40.5 -63t-63.5 -161l-383 -1102h-63l-543 1338h-117z" />
<glyph unicode="W" horiz-adv-x="1933" d="M18 1307v61h1416v-61h-74q-32 0 -49.5 -23.5t-53.5 -112.5l-96 -241l213 -527l289 789q10 26 10 47q0 19 -9 35q-18 32 -67 33h-79v61h395v-61h-78q-37 0 -60 -24.5t-55 -111.5l-434 -1202h-53l-250 584l-256 -584h-59l-535 1338h-115zM465 1307l375 -924l110 252 l-270 672h-215zM999 1307l125 -301l123 301h-248z" />
<glyph unicode="X" horiz-adv-x="1366" d="M-4 1307v61h655v-61h-141l240 -404l231 346q20 29 -2.5 43.5t-67.5 14.5h-94v61h457v-61q-10 0 -52 2q-28 1 -48 1h-16q-22 -1 -51.5 -12.5t-45.5 -35.5l-281 -416l408 -676q2 -3 10.5 -18.5t16.5 -29t18 -28.5t19.5 -24t15.5 -9h102v-61h-659v61h149l-289 478l-274 -416 q-20 -30 7 -46t54 -16h109v-61h-465v61h111q17 0 39 7.5t30 19.5l359 512l-424 707h-121z" />
<glyph unicode="Y" horiz-adv-x="1366" d="M12 1307v61h654v-61h-154l328 -555l260 501q12 23 -6.5 38.5t-51.5 15.5h-120v61h432v-61h-76q-45 0 -70 -20t-63 -93l-271 -526v-607h181v-61h-697v61h172v555l-393 691h-125z" />
<glyph unicode="Z" horiz-adv-x="1138" d="M37 0v80l688 1227h-184q-306 0 -373 -314h-59l18 375h977v-61l-692 -1246h290q60 0 111 26t85.5 65t63.5 96.5t45.5 106t32.5 108.5h60v-463h-1063z" />
<glyph unicode="[" horiz-adv-x="681" d="M106 -451v1850h472v-62h-281v-1726h281v-62h-472z" />
<glyph unicode="\" horiz-adv-x="1105" d="M190 1399h181l544 -1399h-180z" />
<glyph unicode="]" horiz-adv-x="681" d="M104 -389h281v1726h-281v62h471v-1850h-471v62z" />
<glyph unicode="^" d="M-10 395l440 967h158l446 -967h-164l-362 793l-356 -793h-162z" />
<glyph unicode="_" d="M0 -154h1024v-102h-1024v102z" />
<glyph unicode="`" horiz-adv-x="681" d="M16 1309q0 37 26.5 63.5t63.5 26.5q26 0 49.5 -8.5t46 -28t36 -33.5t37.5 -43t32 -39l199 -227h-125l-281 180q-29 19 -42 29t-27.5 32t-14.5 48z" />
<glyph unicode="a" d="M90 160q0 69 37.5 123t93.5 86.5t129.5 54t137 30t124.5 9.5v137q0 85 -7 108q-16 51 -91 60q-20 2 -45 2q-29 0 -69 -12.5t-40 -36.5q0 -9 21 -43q20 -32 20 -51q0 -67 -33.5 -105.5t-97.5 -38.5q-56 0 -93.5 33.5t-37.5 89.5q0 57 36 101.5t91.5 68.5t112 35.5 t108.5 11.5q94 0 169.5 -12.5t119 -33t66 -43.5t22.5 -46v-498q0 -20 1.5 -33.5t7 -29t18.5 -23.5t33 -8q11 0 28 9.5t23 19.5l37 -39q-41 -64 -90 -90.5t-123 -26.5q-62 0 -114.5 44t-68.5 98q-56 -65 -130.5 -103.5t-155.5 -38.5q-92 0 -166 51t-74 140zM352 248 q0 -60 31 -111t88 -51q66 0 103.5 36.5t37.5 82.5v209q-42 -2 -70.5 -5.5t-68 -14t-63 -27t-41 -47t-17.5 -72.5z" />
<glyph unicode="b" horiz-adv-x="1138" d="M63 0v57h119v1264h-114v57h114q55 0 157.5 10t125.5 11v-723q94 147 248 147q103 0 193 -59t141 -153.5t51 -198.5q0 -108 -47.5 -209t-137.5 -167.5t-200 -66.5q-160 0 -244 162h-4v-131h-402zM465 248q0 -72 66.5 -148.5t144.5 -76.5q34 0 55.5 12t30.5 37t11.5 47 t2.5 59v500q0 40 -30 66t-72 26q-74 0 -141.5 -74.5t-67.5 -130.5v-317z" />
<glyph unicode="c" d="M102 387q0 122 66.5 223.5t173 157t227.5 55.5q80 0 145 -23.5t102 -58.5t57 -72t20 -69q0 -64 -40.5 -102.5t-102.5 -38.5q-58 0 -97 41t-39 100q0 21 11.5 46t23.5 34q27 18 27 45q0 45 -109 45q-38 0 -62.5 -7t-46.5 -29t-32 -67t-10 -116v-264q0 -160 30 -212 t127 -52q114 0 185.5 60t120.5 175l45 -25q-42 -120 -139 -192t-222 -72q-113 0 -218.5 53.5t-174 151t-68.5 213.5z" />
<glyph unicode="d" horiz-adv-x="1138" d="M39 375q0 91 28.5 168t73 127t100 86t107.5 51.5t98 15.5q73 0 137 -39t95 -102h4v639h-160v57h160q55 0 157.5 10t125.5 11v-1342h116v-57h-399v117q-109 -148 -264 -148q-100 0 -188.5 59.5t-139.5 153t-51 193.5zM356 133q0 -48 25 -79t72 -31q94 0 161.5 76.5 t67.5 172.5v248q0 99 -62.5 174.5t-146.5 75.5q-50 0 -83.5 -25t-33.5 -73v-539z" />
<glyph unicode="e" d="M72 391q0 101 42 184.5t110.5 136.5t153 82t173.5 29q102 0 192.5 -43t147.5 -125.5t57 -185.5q0 -12 -5.5 -20t-12 -12t-18.5 -6t-20 -2t-22 0.5t-18 0.5h-449v-264q0 -77 41.5 -110t124.5 -33q124 0 213 61t123 178l47 -16q-38 -138 -143.5 -207.5t-253.5 -69.5 q-97 0 -183 27t-153.5 78.5t-107 133.5t-39.5 183zM403 483h269v201q0 86 -144 86q-63 0 -94 -25.5t-31 -68.5v-193z" />
<glyph unicode="f" horiz-adv-x="681" d="M20 754v57h140v117q0 97 27 177.5t71 134t100.5 90t114 53t113.5 16.5q116 0 177.5 -50t61.5 -120q0 -67 -35.5 -105.5t-99.5 -38.5q-48 0 -83.5 32t-35.5 81q0 45 25 74q2 2 8.5 8t9 9t5 9t2.5 13q0 16 -19 23t-39 7q-33 0 -56.5 -13.5t-36 -32t-19 -48.5t-8 -53.5 t-1.5 -56.5v-326h176v-57h-176v-697h148v-57h-555v57h125v697h-140z" />
<glyph unicode="g" d="M45 127q0 90 50 140t143 75q-140 77 -140 207q0 34 16 71.5t48.5 73.5t77.5 65t108.5 46.5t134.5 17.5q165 0 295 -92q6 7 20.5 27t21.5 28.5t21.5 23t26 21t28.5 12t36 5.5q36 0 62 -30t26 -66q0 -99 -80 -99q-51 0 -98 58l-19 -17q58 -69 58 -143q0 -61 -27.5 -109 t-70.5 -77t-100 -47.5t-110.5 -25.5t-107.5 -7q-135 0 -193 14q-8 2 -17 2q-30 0 -70 -20q-52 -26 -52 -64q0 -41 103 -41h540q99 0 143 -65.5t44 -169.5q0 -101 -45.5 -179t-120.5 -123t-163 -67.5t-183 -22.5q-39 0 -88.5 7t-106.5 23.5t-103 40t-77 61.5t-31 83 q0 102 131 162q-59 32 -95 84.5t-36 116.5zM198 -223q6 -58 45 -96.5t95.5 -58t122.5 -19.5q43 0 87 5t92.5 16t90.5 31t76.5 47.5t54 68.5t19.5 90q0 19 -10 30.5t-29 16t-32 5.5t-34 1h-551v-2q-29 -65 -29 -116q0 -10 2 -19zM369 395q0 -61 123 -61q40 0 72 15t32 46v271 q0 61 -26.5 82.5t-82.5 21.5q-66 0 -92 -21t-26 -83v-271z" />
<glyph unicode="h" horiz-adv-x="1138" d="M10 1321v57h127q55 0 157.5 10t125.5 11v-791h4q58 107 138 161t198 54q129 0 185 -60.5t56 -187.5v-518h127v-57h-516v57h107v607q0 33 -27.5 51t-62.5 18q-73 0 -141 -92t-68 -211v-373h117v-57h-512v57h112v1264h-127z" />
<glyph unicode="i" horiz-adv-x="569" d="M10 754v57h142q47 0 141 4t141 4v-762h125v-57h-541v57h134v697h-142zM139 1145q0 58 45 101.5t103 43.5q57 0 101 -43.5t44 -101.5q0 -59 -43.5 -103.5t-101.5 -44.5q-59 0 -103.5 44.5t-44.5 103.5z" />
<glyph unicode="j" horiz-adv-x="645" d="M-100 -293q0 45 33 78t79 33q40 0 73.5 -23.5t33.5 -60.5q0 -17 -4 -41q-8 -30 -3.5 -48.5t33.5 -23.5q17 -3 30 3.5t20 23t12 33.5t6 41.5t1 40.5t-0.5 37.5t-0.5 25.5v928h-141v57h141q47 0 141 4t142 4v-637q0 -181 -33 -299t-117 -209q-105 -114 -258 -114 q-76 0 -132 39t-56 108zM199 1149q0 58 44.5 101.5t102.5 43.5q57 0 101.5 -43.5t44.5 -101.5q0 -59 -44 -103.5t-102 -44.5t-102.5 44.5t-44.5 103.5z" />
<glyph unicode="k" horiz-adv-x="1138" d="M12 1321v57h109q55 0 157 9.5t125 11.5v-1342h136v-57h-523v57h105v1264h-109zM432 408v41l344 305h-198v57h434v-57h-146l-221 -195l404 -502h79v-57h-528v57h107z" />
<glyph unicode="l" horiz-adv-x="569" d="M-8 1321v57h143q55 0 157.5 10t125.5 11v-1342h133v-57h-539v57h123v1264h-143z" />
<glyph unicode="m" horiz-adv-x="1705" d="M20 754v57h132q46 0 137 4t137 4v-196q53 90 131 145t174 55q97 0 166 -49t86 -143q60 87 147 139.5t187 52.5q41 0 81 -9.5t75.5 -28t57 -52t21.5 -76.5v-600h134v-57h-515v57h107v570q0 34 -4 55t-22.5 39t-53.5 18q-56 0 -106 -44t-76.5 -104t-26.5 -114v-420h107v-57 h-488v57h107v508q0 104 -17 139t-73 35q-26 0 -59 -17.5t-65 -49t-53.5 -85.5t-21.5 -118v-412h106v-57h-493v57h113v697h-132z" />
<glyph unicode="n" horiz-adv-x="1138" d="M27 0v57h131v697h-131v57h131q46 0 137 4t137 4v-188q63 108 143.5 150t192.5 42q51 0 89.5 -8.5t72 -29t51.5 -60.5t18 -98v-570h127v-57h-512v57h111v523q0 93 -21 126t-67 33q-62 0 -110.5 -47.5t-71.5 -110t-23 -122.5v-402h109v-57h-514z" />
<glyph unicode="o" horiz-adv-x="1138" d="M78 389q0 129 72 230t183 152.5t236 51.5t236 -51.5t183.5 -152.5t72.5 -230q0 -128 -68.5 -225t-179 -146t-244.5 -49q-107 0 -200 34t-156 91.5t-99 134t-36 160.5zM410 174q0 -85 40 -118t119 -33t119.5 33.5t40.5 117.5v436q0 96 -30 128t-130 32q-94 0 -126.5 -33 t-32.5 -127v-436z" />
<glyph unicode="p" horiz-adv-x="1138" d="M43 754v57h141q47 0 141.5 4t141.5 4v-180h4q51 96 107 140t153 44q85 0 157 -36.5t120 -96.5t75 -137.5t27 -159.5q0 -106 -48 -203t-136.5 -159t-196.5 -62q-77 0 -147.5 41.5t-108.5 108.5h-6v-502h172v-57h-559v57h104v1137h-141zM467 264q0 -43 30 -99t84.5 -99 t112.5 -43q97 0 97 102v508q0 137 -103 137q-54 0 -107 -50t-83.5 -113t-30.5 -109v-234z" />
<glyph unicode="q" horiz-adv-x="1138" d="M31 377q0 85 29 165.5t79 143.5t126 100q74 37 158 37h5q80 -1 136.5 -38t111.5 -109v143q47 0 141 -4t141 -4h129v-57h-129v-1137h115v-57h-545v57h148v506q-98 -154 -268 -154q-103 0 -191 59t-137 153t-49 196zM350 125q0 -21 3 -35.5t12 -31.5t30 -26t54 -9 q57 0 111.5 42t85 98t30.5 101v234q0 98 -71 185t-154 87q-44 0 -72.5 -33t-28.5 -104v-508z" />
<glyph unicode="r" horiz-adv-x="909" d="M57 754v57h109q47 0 141.5 4t141.5 4v-215h4q31 97 94 158t158 61q77 0 123 -46t46 -124q0 -61 -41.5 -102t-103.5 -41q-55 0 -92 33.5t-37 89.5q0 11 1 20.5t4 19.5t5 15t7.5 18t7.5 19q3 8 -9 10h-5q-30 0 -73 -58q-19 -26 -38 -61q-31 -58 -41 -94.5t-10 -95.5v-369 h153v-57h-541v57h105v697h-109z" />
<glyph unicode="s" horiz-adv-x="796" d="M68 549q0 127 82.5 200.5t209.5 73.5q35 0 63.5 -5.5t66.5 -18t59 -17.5q11 -3 28.5 11t30.5 30h41v-235h-57q-34 98 -84 140t-148 42q-27 0 -56.5 -5.5t-60.5 -17t-51 -34.5t-20 -54q0 -33 49.5 -57t118.5 -29q93 -6 158.5 -21.5t120.5 -46t82.5 -84t27.5 -130.5 q0 -63 -18.5 -119.5t-54 -102.5t-95 -73t-135.5 -27q-127 0 -242 74l-57 -43h-51v289h53q21 -111 105 -188.5t194 -77.5q64 0 128.5 38t64.5 101q0 19 -4.5 34t-11.5 25t-19.5 17.5t-23 11.5t-28 7t-29 4t-31.5 2.5t-30 2.5q-65 6 -109.5 14t-99 27.5t-88 48t-56.5 78 t-23 115.5z" />
<glyph unicode="t" horiz-adv-x="681" d="M35 737v58h125v243h121q31 0 90 10t71 11v-264h156v-58h-156v-555q0 -4 -0.5 -18.5t0 -20.5t1.5 -18.5t4.5 -19t9 -14t14.5 -10.5t21 -3q29 0 48.5 10t30.5 31t16 39t11 49l59 -12q-25 -120 -102.5 -173t-204.5 -53q-40 0 -70.5 5.5t-50.5 13t-33.5 23t-20.5 27.5 t-10.5 35.5t-4 37.5t-0.5 43v583h-125z" />
<glyph unicode="u" horiz-adv-x="1138" d="M6 754v57h141q48 0 142 4t141 4v-571v-30v-47t2 -38.5t7 -34.5t14 -23.5t24 -17t35 -4.5q53 0 102 43.5t74 94.5t25 85v478h-142v57h142q47 0 141 4t141 4v-762h138v-57h-138q-63 0 -141 -10q-117 -10 -141 -10v176h-4q-35 -94 -120 -140.5t-194 -46.5q-53 0 -92 8 t-65.5 18t-44 34.5t-27 43t-14 59t-5 66t-0.5 80.5v9v467h-141z" />
<glyph unicode="v" d="M31 754v57h495v-57h-114l211 -484l172 426q6 14 8 24t-1.5 16.5t-5.5 10t-12 5t-12.5 2.5t-16.5 0h-14h-84v57h334v-57h-71q-37 0 -56 -43l-313 -742h-53l-379 785h-88z" />
<glyph unicode="w" horiz-adv-x="1366" d="M16 754v57h498v-57h-102l151 -422h4l203 479h59l207 -483h4l129 377q7 23 -9.5 36t-39.5 13h-78v57h310v-57h-76q-13 0 -22 -6.5t-12 -13.5t-6.5 -18.5t-4.5 -13.5l-264 -733h-43l-234 510h-2l-211 -510h-47l-309 785h-105z" />
<glyph unicode="x" horiz-adv-x="1138" d="M39 754v57h534v-57h-108l164 -217l194 217h-139v57h340v-57h-115l-245 -262l319 -402q11 -13 23 -21t26.5 -10.5t24 -3t24.5 0.5t19 1v-57h-537v57h111l-191 242l-188 -207q-23 -26 33 -33q21 -2 84 -2v-57h-361v57h96q21 0 45 15t38 29t39 43.5t30 35.5l150 166 l-316 408h-94z" />
<glyph unicode="y" d="M35 754v57h493v-57h-96l199 -443h8l156 381q12 31 -6 46.5t-46 15.5h-75v57h323v-57h-63q-12 0 -22.5 -5.5t-19.5 -20.5t-13.5 -22t-13 -29.5t-9.5 -23.5l-406 -942q-71 -162 -200 -162q-51 0 -91 39t-40 88q0 55 33 89t85 34q49 0 84 -39q11 -12 16 -16.5t16 -10t18 0.5 q12 5 21 11.5t16 18.5l10.5 18t10 22.5t7.5 19.5l74 174l-379 756h-90z" />
<glyph unicode="z" horiz-adv-x="909" d="M68 0v41l458 713h-120q-91 0 -147 -58.5t-103 -203.5h-54l11 319h729v-51l-447 -703h142q28 0 53 8t44 19.5t38 32t31 37.5t26.5 46t22.5 47t21.5 49.5l19.5 45.5h51l-10 -342h-766z" />
<glyph unicode="{" horiz-adv-x="573" d="M57 477v4q87 24 114.5 74.5t27.5 161.5v356q0 54 2 90t15 84t38 76q30 36 77 54t79 20t90 2h16v-6q-77 -27 -108 -84t-31 -160v-373q0 -65 -5.5 -108.5t-21 -84t-47 -65.5t-80.5 -37v-4q91 -25 122.5 -90t31.5 -186v-402q0 -106 29.5 -161.5t109.5 -83.5v-5 q-9 0 -36.5 -0.5t-37.5 0t-33 1.5t-36 4.5t-32 9.5t-35.5 15t-33.5 22q-46 40 -59.5 96.5t-13.5 142.5v398q0 47 -1 64.5t-9 45.5t-27 53q-37 60 -105 76z" />
<glyph unicode="|" horiz-adv-x="1146" d="M492 -512v2048h165v-2048h-165z" />
<glyph unicode="}" horiz-adv-x="573" d="M57 -446q80 28 110 84t30 161v402q0 121 31 186t122 90v4q-49 12 -80.5 37t-47 65.5t-20.5 84t-5 108.5v373q0 103 -31.5 160t-108.5 84v6h16q58 0 90 -2t79 -20t77 -54q56 -64 56 -250v-356q0 -111 27 -161.5t114 -74.5v-4q-66 -16 -104 -76q-19 -25 -27 -53t-9 -45.5 t-1 -64.5v-398q0 -85 -14 -142t-60 -97q-17 -13 -33.5 -22t-35.5 -15t-32 -9.5t-36 -4.5t-33 -1.5t-37.5 0t-36.5 0.5v5z" />
<glyph unicode="~" d="M2 377q30 49 57 83.5t64 69t82.5 52.5t97.5 18q81 0 232 -59q11 -4 43 -16.5t45.5 -17.5t36.5 -12.5t39.5 -10.5t31.5 -3q16 0 31 4t29 13.5t24 17.5t23 24.5t19 24.5t19 27t17 24l129 -81q-27 -38 -38 -53t-37.5 -47t-45 -46.5t-46.5 -33t-58.5 -26t-65.5 -7.5 q-66 0 -180 43l-86 32q-4 2 -24 9.5l-28 10.5t-25.5 9t-28.5 8.5t-25.5 5t-26.5 2.5q-19 0 -36 -4t-32.5 -14.5t-25.5 -18t-24.5 -26.5t-20 -26t-21 -31t-18.5 -29z" />
<glyph unicode="&#xa1;" horiz-adv-x="681" d="M166 772q0 68 50 118t118 50t119 -50t51 -118q0 -70 -50 -119t-120 -49q-69 0 -118.5 50t-49.5 118zM172 -264q0 56 41 145q76 165 84 312q8 183 6 274h62q-2 -91 6 -274q8 -147 84 -312q41 -89 41 -145q0 -78 -40.5 -132.5t-115.5 -54.5q-84 0 -126 54t-42 133z" />
<glyph unicode="&#xa2;" horiz-adv-x="1251" d="M201 389q0 121 66.5 222t173.5 156.5t227 55.5q75 0 139 -20l92 241h82l-104 -276q114 -75 114 -168q0 -86 -74.5 -125t-146.5 10l-164 -438q118 -35 219.5 27.5t151.5 185.5l45 -24q-50 -143 -175 -213.5t-265 -40.5l-105 -279h-82l111 299q-130 45 -217.5 150 t-87.5 237zM512 246q0 -93 29 -150l176 467q-9 27 1.5 66t29.5 51q9 6 18 21t8 24q-7 49 -108 49q-154 0 -154 -168v-360z" />
<glyph unicode="&#xa3;" horiz-adv-x="1251" d="M72 145q0 82 63.5 137.5t145.5 55.5q52 0 129 -29t82 -30q0 91 -97 274q-11 22 -33 60.5l-30 52.5h-195v102h174q-12 74 -12 147q0 91 27.5 166.5t73.5 126.5t106 86.5t124 51.5t130 16q69 0 136.5 -17t127.5 -50.5t96.5 -91.5t36.5 -132q0 -67 -42 -113.5t-107 -46.5 q-63 0 -106.5 38t-43.5 102q0 51 45 104q16 19 22.5 27t13.5 22.5t7 28.5q0 24 -28 40.5t-56.5 21.5t-52.5 5q-78 0 -125 -17t-70 -57t-18 -106.5t37 -165.5q49 -153 55 -186h232v-102h-224q11 -41 11 -111q0 -148 -78 -301q86 -21 178 -21q150 0 215 63t86 216h63 q0 -262 -92 -402.5t-278 -140.5q-134 0 -264 111q-51 -51 -117 -81t-135 -30q-93 0 -153 43.5t-60 132.5zM166 145q0 -58 34.5 -88t94.5 -30q56 0 108 31t82 79q-36 66 -81 98.5t-113 32.5q-55 0 -90 -34t-35 -89z" />
<glyph unicode="&#xa4;" horiz-adv-x="1251" d="M182 643q0 145 80 260l-74 74l103 106l76 -75q112 82 266 82q131 0 252 -82l76 75l104 -106l-76 -74q80 -121 80 -268q0 -124 -80 -246l76 -76l-104 -104l-76 76q-119 -84 -267 -84q-131 0 -251 84l-76 -76l-103 104l74 76q-80 121 -80 254zM365 641q0 -108 78.5 -181 t187.5 -73q105 0 179.5 78t74.5 182t-74.5 182t-177.5 78q-115 0 -191.5 -75.5t-76.5 -190.5z" />
<glyph unicode="&#xa5;" horiz-adv-x="1251" d="M10 1300v62h590v-62h-137l295 -552l235 499q10 23 -6.5 38t-46.5 15h-109v62h392v-62h-70q-41 0 -63 -19.5t-56 -92.5l-246 -522v-97h250v-90h-250v-90h250v-90h-250v-238h164v-61h-628v61h155v238h-248v90h248v90h-248v90h248v45l-354 686h-115z" />
<glyph unicode="&#xa6;" horiz-adv-x="1146" d="M492 -358v716h165v-716h-165zM492 666v716h165v-716h-165z" />
<glyph unicode="&#xa7;" d="M129 586q0 120 69 187.5t187 57.5v21q-44 39 -68.5 63.5t-51.5 61t-38.5 77t-11.5 89.5q0 68 28 119.5t73.5 80t94.5 42.5t99 14q60 0 123 -21t111.5 -68t48.5 -108q0 -53 -32 -91t-85 -38q-46 0 -80.5 33t-34.5 78q0 16 8 32.5t17 26t26 25t23 22.5q5 3 5.5 12.5 t-3.5 18.5q-12 20 -44.5 30.5t-64.5 10.5q-75 0 -126.5 -40t-51.5 -112q0 -21 5 -39.5t22.5 -41.5t36.5 -42.5t60.5 -53.5t80 -63.5t109.5 -82.5q118 -89 175.5 -189.5t57.5 -177.5q0 -114 -67 -179t-181 -62v-21q166 -124 166 -276q0 -90 -48.5 -152.5t-121 -89.5 t-160.5 -27q-63 0 -126 20.5t-111.5 69t-48.5 113.5q0 127 127 127q43 0 75.5 -30t32.5 -74q0 -26 -13 -46.5t-28 -31t-28 -21.5t-13 -20q0 -31 50.5 -48.5t89.5 -17.5q78 0 126 38t48 114q0 86 -88 151q-82 61 -198 158.5t-167 153.5q-44 50 -64 100.5t-20 116.5zM258 664 q0 -20 6.5 -40t22 -42t26.5 -37t36.5 -38.5t35 -31.5l38 -32t30.5 -25q120 -101 184 -101q55 0 91 38.5t36 93.5q0 25 -9 48t-31 49.5t-32 36.5t-39 38q-37 34 -59 53.5t-64 52.5t-79.5 49.5t-69.5 16.5q-53 0 -88 -38t-35 -91z" />
<glyph unicode="&#xa8;" horiz-adv-x="681" d="M-4 1194q0 53 37.5 93t89.5 40q54 0 93.5 -39t39.5 -94q0 -56 -39 -94.5t-94 -38.5q-52 0 -89.5 40.5t-37.5 92.5zM428 1194q0 53 37.5 93t89.5 40q54 0 93.5 -39t39.5 -94q0 -56 -39 -94.5t-94 -38.5q-52 0 -89.5 40.5t-37.5 92.5z" />
<glyph unicode="&#xa9;" horiz-adv-x="1556" d="M76 686q0 144 55 276t148 227.5t222.5 152.5t272.5 57q145 0 276 -55.5t226 -150t151 -227t56 -280.5t-57 -281.5t-152.5 -228.5t-226.5 -151t-275 -56q-188 0 -348.5 97.5t-254 262.5t-93.5 357zM199 688q0 -122 46.5 -232.5t125 -190t186.5 -126.5t227 -47 q155 0 288.5 81.5t210.5 218.5t77 296q0 160 -78.5 295.5t-213.5 214t-294 78.5q-154 0 -287 -80.5t-210.5 -216t-77.5 -291.5zM410 707q0 39 17.5 86.5t51.5 95t78 87.5t102 64.5t119 24.5q109 0 189 -53l39 37h38v-195h-34q-36 85 -87 132.5t-141 47.5q-37 0 -58.5 -6 t-40 -24t-27.5 -55t-14 -94.5t-5 -147.5q0 -217 22 -278.5t125 -61.5q171 0 238 188h41v-207h-45l-41 37q-97 -53 -186 -53q-158 0 -269.5 108.5t-111.5 266.5z" />
<glyph unicode="&#xaa;" horiz-adv-x="614" d="M8 1001q0 50 35 87.5t91.5 56.5t109 28t104.5 11v82v7q0 28 -1.5 40.5t-10 28t-28.5 21t-54 5.5q-18 0 -44 -8t-26 -23q0 -7 13 -24q14 -17 14 -31q0 -40 -22 -63t-64 -23q-36 0 -60 20t-24 54t23 60.5t59 40.5t72.5 21t70.5 7q81 0 139 -13t82.5 -30.5t24.5 -36.5v-299 q0 -14 0.5 -21t4 -17t12 -14.5t22.5 -4.5q7 0 18 5.5t15 12.5l22 -25q-26 -38 -57.5 -53.5t-79.5 -15.5q-40 0 -74 26t-45 58q-81 -84 -186 -84q-60 0 -108 30.5t-48 83.5zM178 1055q0 -37 20.5 -68t57.5 -31q43 0 67.5 22t24.5 50v125q-36 -2 -58.5 -5.5t-52 -12.5 t-44.5 -29.5t-15 -50.5z" />
<glyph unicode="&#xab;" d="M154 408v14q233 195 346 301q12 7 22 2t10 -20q0 -19 -196 -293q45 -53 124 -162.5t79 -136.5q0 -8 -10 -12t-19 3q-96 87 -356 304zM485 408v14q233 195 346 301q12 7 22.5 1.5t10.5 -19.5q0 -19 -196 -293q45 -52 123.5 -162t78.5 -137q0 -8 -9.5 -12t-18.5 3 q-84 76 -357 304z" />
<glyph unicode="&#xac;" d="M59 512v166h908v-551h-164v385h-744z" />
<glyph unicode="&#xad;" horiz-adv-x="681" d="M49 307v209h584v-209h-584z" />
<glyph unicode="&#xae;" horiz-adv-x="1556" d="M76 686q0 144 55 276t148 227.5t222.5 152.5t272.5 57q145 0 276 -55.5t226 -150t151 -227t56 -280.5t-57 -281.5t-152.5 -228.5t-226.5 -151t-275 -56q-188 0 -348.5 97.5t-254 262.5t-93.5 357zM199 688q0 -122 46.5 -232.5t125 -190t186.5 -126.5t227 -47 q155 0 288.5 81.5t210.5 218.5t77 296q0 160 -78.5 295.5t-213.5 214t-294 78.5q-154 0 -287 -80.5t-210.5 -216t-77.5 -291.5zM418 1030v35h452q96 0 165 -44.5t69 -133.5q0 -43 -25.5 -75.5t-67 -50.5t-81.5 -27.5t-82 -12.5v-4q120 -20 172.5 -66t52.5 -127 q0 -124 23 -147q19 -19 88 -2l6 -25q-68 -33 -133 -33q-104 0 -146 50.5t-45 177.5q0 98 -23.5 129t-94.5 31h-50v-340h97v-33h-375v33h90v665h-92zM698 739h47q90 0 120 19.5t30 77.5v106q0 5 0.5 18t0.5 17.5t-2 14.5t-6.5 13.5t-12.5 9.5t-20.5 8.5t-31 4.5t-43.5 2h-82 v-291z" />
<glyph unicode="&#xaf;" horiz-adv-x="681" d="M2 1221v147h678v-147h-678z" />
<glyph unicode="&#xb0;" horiz-adv-x="819" d="M102 1055q-1 126 89.5 216.5t218.5 90.5q126 0 216.5 -90.5t90.5 -216.5q0 -127 -90.5 -217t-216.5 -90q-128 0 -218 90t-90 217zM217 1055q0 -79 56.5 -136t136.5 -57q79 0 136 57t56 136q1 78 -56.5 135t-137.5 57q-78 0 -135 -57t-56 -135z" />
<glyph unicode="&#xb1;" d="M59 0v166h908v-166h-908zM59 494v165h371v250h166v-250h371v-165h-371v-252h-166v252h-371z" />
<glyph unicode="&#xb2;" horiz-adv-x="749" d="M47 545v108q39 28 118 83.5t118 82.5q73 51 111.5 89t61.5 94.5t23 134.5q0 75 -42.5 128.5t-121.5 53.5q-57 0 -118 -33q-16 -9 -38 -28t-22 -29q0 -17 33 -17q50 0 84.5 -23t34.5 -67q0 -41 -29.5 -63.5t-75.5 -22.5q-53 0 -81.5 35t-28.5 84q0 87 84.5 147t230.5 60 q58 0 111.5 -11.5t100 -35.5t74 -67.5t27.5 -100.5q0 -61 -32.5 -108t-91.5 -95q-70 -56 -219.5 -141.5t-176.5 -102.5h424q21 0 32 12.5t12 30t1.5 37t1.5 33.5h47l-14 -268h-639z" />
<glyph unicode="&#xb3;" horiz-adv-x="749" d="M49 680q0 45 24 73.5t72 28.5q43 0 74 -23t31 -63q0 -41 -35 -67q-5 -3 -13 -8t-12.5 -7.5t-8 -7t-3.5 -8.5q0 -17 50.5 -27t78.5 -10q81 0 123.5 47.5t42.5 132.5q0 114 -47.5 163.5t-157.5 49.5q-15 0 -40.5 -1t-37.5 -1q-14 0 -14 17t12 20q79 6 80 6q99 9 135.5 50.5 t36.5 134.5q0 84 -26.5 115.5t-98.5 31.5q-94 0 -94 -31q0 -5 4 -8t14 -8t15 -8q31 -27 31 -66q0 -38 -26.5 -61t-68.5 -23q-36 0 -62 25t-26 59q0 71 69.5 113.5t184.5 42.5q49 0 98 -10t94.5 -30.5t74 -57.5t28.5 -86q0 -44 -23.5 -79t-65 -56.5t-80 -34.5t-87.5 -23v-4 q40 -7 61.5 -11t59.5 -13t59.5 -18.5t49 -26.5t42 -36.5t25 -48t10.5 -63.5q0 -58 -35 -105t-93.5 -75t-128.5 -43t-144 -15q-110 0 -181 48.5t-71 105.5z" />
<glyph unicode="&#xb4;" horiz-adv-x="681" d="M178 1020l199 227q8 10 32 39t37.5 43t36 33.5t46 28t49.5 8.5q37 0 63.5 -26.5t26.5 -63.5q0 -26 -14.5 -48t-27.5 -32t-42 -29l-281 -180h-125z" />
<glyph unicode="&#xb5;" horiz-adv-x="1138" d="M6 754v57h141q48 0 142 4t141 4v-571v-30v-47t2 -38.5t7 -34.5t14 -23.5t24 -17t35 -4.5q53 0 102 43.5t74 94.5t25 85v478h-142v57h142q47 0 141 4t141 4v-762h138v-57h-138q-63 0 -141 -10q-117 -10 -141 -10v176h-4q-35 -94 -120 -140.5t-194 -46.5q-20 0 -20 -35.5 t12 -70.5q3 -9 11.5 -36.5t13.5 -44t10.5 -42t7.5 -47.5q5 -56 -37 -100t-104 -44t-103.5 40.5t-38.5 103.5q2 36 14.5 90.5t22.5 95.5t10 89t-18 83q-14 26 -20.5 66.5t-7.5 72.5t-1 97v467h-141z" />
<glyph unicode="&#xb6;" horiz-adv-x="1351" d="M162 952q0 106 41 194t106.5 141.5t142 82.5t152.5 29h588v-142h-127v-1542h-152v1542h-157v-1544h-152v789q-76 0 -152.5 29.5t-142 83.5t-106.5 142t-41 195z" />
<glyph unicode="&#xb7;" horiz-adv-x="681" d="M170 455q0 67 50 117.5t118 50.5t119 -50t51 -118q0 -70 -50 -119t-120 -49q-69 0 -118.5 50t-49.5 118z" />
<glyph unicode="&#xb8;" horiz-adv-x="681" d="M90 -410l33 76q58 -26 147 -26q37 0 64.5 23t27.5 58q0 36 -25.5 55t-62.5 19q-36 0 -63 -8l-21 16l86 197h86l-57 -131q29 10 72 10q79 0 128.5 -37t49.5 -114q0 -51 -28 -87t-74.5 -54t-91 -25.5t-91.5 -7.5q-37 0 -90 11t-90 25z" />
<glyph unicode="&#xb9;" horiz-adv-x="749" d="M115 545v37h166v690q0 37 -54 37h-112v37l360 16v-780h162v-37h-522z" />
<glyph unicode="&#xba;" horiz-adv-x="684" d="M23 1139q0 116 96 188t223 72t223.5 -72t96.5 -188q0 -115 -93 -183.5t-227 -68.5q-139 0 -229 74t-90 178zM238 1010q0 -51 26.5 -70.5t77.5 -19.5t77.5 19.5t26.5 70.5v262q0 57 -18.5 76.5t-81.5 19.5q-64 0 -86 -20t-22 -76v-262z" />
<glyph unicode="&#xbb;" d="M154 113q0 27 78.5 137t123.5 162q-196 274 -196 293q0 14 10.5 19.5t22.5 -1.5q113 -106 346 -301v-14q-273 -228 -357 -304q-9 -7 -18.5 -3t-9.5 12zM485 113q0 27 79 136.5t124 162.5q-196 274 -196 293q0 15 10 20t22 -2q113 -106 346 -301v-14q-260 -217 -356 -304 q-9 -7 -19 -3t-10 12z" />
<glyph unicode="&#xbc;" horiz-adv-x="1875" d="M190 545v37h166v690q0 37 -53 37h-113v37l361 16v-780h162v-37h-523zM473 0l920 1362h106l-919 -1362h-107zM955.5 259q-0.5 5 3 13t12.5 19l409 526h133v-557h89q24 0 35 7.5t11.5 20.5t0 29t0.5 33h37v-213h-37v23.5t0.5 19.5t-0.5 14.5t-2.5 11.5t-6 7t-9 5.5t-14 2.5 t-20 2h-26.5h-58v-186h105v-37h-426v37h117v186h-351q1 10 -0.5 20.5t-2 15.5zM999 260h310v404z" />
<glyph unicode="&#xbd;" horiz-adv-x="1875" d="M170 545v37h166v690q0 37 -53 37h-113v37l360 16v-780h162v-37h-522zM410 0l919 1362h107l-920 -1362h-106zM1051 0v109q39 27 117.5 82.5t117.5 82.5q109 75 153 140t44 178q0 75 -42.5 128.5t-121.5 53.5q-59 0 -119 -33q-16 -9 -37.5 -27.5t-21.5 -29.5q0 -16 33 -16 q50 0 84 -23t34 -67q0 -41 -29 -63.5t-75 -22.5q-53 0 -82 34.5t-29 83.5q0 87 84.5 147t231.5 60q58 0 111.5 -11.5t100 -35.5t74 -67.5t27.5 -100.5q0 -60 -32.5 -107.5t-92.5 -95.5q-70 -56 -218.5 -140.5t-176.5 -102.5h424q21 0 32 12.5t12 30t1.5 36.5t1.5 33h47 l-14 -268h-639z" />
<glyph unicode="&#xbe;" horiz-adv-x="1875" d="M190 698q0 45 24.5 74t72.5 29q43 0 73.5 -23t30.5 -63q0 -42 -35 -68q-5 -3 -13 -8t-12.5 -7.5t-8 -7t-3.5 -8.5q0 -17 50.5 -26.5t79.5 -9.5q80 0 122.5 47.5t42.5 132.5q0 114 -47 163.5t-157 49.5q-15 0 -40.5 -1t-37.5 -1q-14 0 -14 17t12 20q79 6 80 6 q99 9 135.5 50t36.5 134q0 84 -26.5 116t-98.5 32q-95 0 -95 -31q0 -5 4 -8.5t14.5 -8.5t14.5 -8q31 -27 31 -65t-26 -61t-68 -23q-36 0 -62 25t-26 59q0 70 69 112.5t185 42.5q49 0 98 -10t94.5 -30.5t74 -57.5t28.5 -86q0 -36 -17 -66t-41.5 -49t-61 -35.5t-67.5 -25 t-69 -16.5v-5q40 -7 61.5 -11t59.5 -13t59.5 -18.5t49 -26.5t42 -36.5t25 -48t10.5 -63.5q0 -77 -61.5 -132.5t-150.5 -80t-190 -24.5q-110 0 -181 48t-71 105zM489 0l920 1362h107l-920 -1362h-107zM955.5 259q-0.5 5 3 13t12.5 19l409 526h133v-557h89q24 0 35 7.5 t11.5 20.5t0 29t0.5 33h37v-213h-37v23.5t0.5 19.5t-0.5 14.5t-2.5 11.5t-6 7t-9 5.5t-14 2.5t-20 2h-26.5h-58v-186h105v-37h-426v37h117v186h-351q1 10 -0.5 20.5t-2 15.5zM999 260h310v404z" />
<glyph unicode="&#xbf;" horiz-adv-x="909" d="M92 -119q0 49 12.5 91.5t28.5 71t51.5 62.5t59 52.5t73.5 54.5q143 105 168 129q46 42 46 86q0 23 -11 64h53q4 -15 13.5 -51.5t15.5 -60t11 -54.5t5 -54q0 -79 -44.5 -149t-122.5 -148q-96 -96 -120 -127q-46 -59 -46 -104q0 -147 207 -147q52 0 112.5 21t67.5 63 q1 6 -11.5 10t-34.5 15t-38 28q-37 40 -37 94q0 58 38.5 87.5t98.5 29.5q59 0 95 -39t36 -99q0 -57 -34 -108t-85 -86q-59 -39 -107 -51.5t-124 -12.5q-154 0 -265.5 91t-111.5 241zM346 772q0 68 50 118t118 50t119 -50t51 -118q0 -70 -50 -119t-120 -49q-69 0 -118.5 50 t-49.5 118z" />
<glyph unicode="&#xc0;" horiz-adv-x="1366" d="M4 0v61q28 0 44.5 1t44.5 6t46.5 18.5t26.5 34.5l483 1278h80l508 -1338h123v-61h-649v61h157l-110 322h-420l-53 -147q-41 -109 -41 -140q0 -14 15.5 -23t42 -11.5t48.5 -3t49 1t29 1.5v-61h-424zM358 1866q0 37 27 63.5t64 26.5q26 0 49.5 -8.5t46 -28t36 -33.5 t36.5 -43t32 -39l199 -227h-125l-281 180q-29 19 -42 29t-27.5 32t-14.5 48zM365 444h368l-182 502z" />
<glyph unicode="&#xc1;" horiz-adv-x="1366" d="M4 0v61q28 0 44.5 1t44.5 6t46.5 18.5t26.5 34.5l483 1278h80l508 -1338h123v-61h-649v61h157l-110 322h-420l-53 -147q-41 -109 -41 -140q0 -14 15.5 -23t42 -11.5t48.5 -3t49 1t29 1.5v-61h-424zM365 444h368l-182 502zM520 1577l199 227q8 10 32 39t37.5 43t36 33.5 t46 28t49.5 8.5q37 0 63.5 -26.5t26.5 -63.5q0 -26 -14.5 -48t-27.5 -32t-42 -29l-281 -180h-125z" />
<glyph unicode="&#xc2;" horiz-adv-x="1366" d="M4 0v61q28 0 44.5 1t44.5 6t46.5 18.5t26.5 34.5l483 1278h80l508 -1338h123v-61h-649v61h157l-110 322h-420l-53 -147q-41 -109 -41 -140q0 -14 15.5 -23t42 -11.5t48.5 -3t49 1t29 1.5v-61h-424zM340 1569l248 356h190l252 -356l-4 -4h-115l-227 200l-235 -200h-105z M365 444h368l-182 502z" />
<glyph unicode="&#xc3;" horiz-adv-x="1366" d="M4 0v61q28 0 44.5 1t44.5 6t46.5 18.5t26.5 34.5l483 1278h80l508 -1338h123v-61h-649v61h157l-110 322h-420l-53 -147q-41 -109 -41 -140q0 -14 15.5 -23t42 -11.5t48.5 -3t49 1t29 1.5v-61h-424zM311 1546q15 107 77.5 181.5t164.5 74.5q66 0 170 -49q104 -51 141 -51 q42 0 65 26t42 74h88q-61 -258 -248 -258q-70 0 -174 49q-100 49 -148 49q-32 0 -59 -28.5t-33 -67.5h-86zM365 444h368l-182 502z" />
<glyph unicode="&#xc4;" horiz-adv-x="1366" d="M4 0v61q28 0 44.5 1t44.5 6t46.5 18.5t26.5 34.5l483 1278h80l508 -1338h123v-61h-649v61h157l-110 322h-420l-53 -147q-41 -109 -41 -140q0 -14 15.5 -23t42 -11.5t48.5 -3t49 1t29 1.5v-61h-424zM338 1669q0 53 37.5 93t89.5 40q54 0 93.5 -39t39.5 -94t-39 -94 t-94 -39q-52 0 -89.5 40.5t-37.5 92.5zM365 444h368l-182 502zM770 1669q0 53 37.5 93t89.5 40q54 0 93.5 -39t39.5 -94t-39 -94t-94 -39q-52 0 -89.5 40.5t-37.5 92.5z" />
<glyph unicode="&#xc5;" horiz-adv-x="1366" d="M4 0v61q28 0 44.5 1t44.5 6t46.5 18.5t26.5 34.5l483 1278h80l508 -1338h123v-61h-649v61h157l-110 322h-420l-53 -147q-41 -109 -41 -140q0 -14 15.5 -23t42 -11.5t48.5 -3t49 1t29 1.5v-61h-424zM365 444h368l-182 502zM465 1677q0 88 64 152.5t153 64.5 q90 0 154.5 -63.5t64.5 -153.5q0 -92 -64 -155.5t-155 -63.5q-90 0 -153.5 64.5t-63.5 154.5zM563 1677q0 -47 36 -82.5t83 -35.5t84 36t37 82q0 47 -36.5 82t-84.5 35q-47 0 -83 -35t-36 -82z" />
<glyph unicode="&#xc6;" horiz-adv-x="2048" d="M43 0v61h88q31 0 46 12t30 42l346 714q5 10 39.5 79.5t51.5 107t35.5 92.5t18.5 88q0 49 -41 80t-118 31h-66v61h1401l12 -369h-69q-65 174 -146.5 241t-234.5 67h-193v-572q76 0 123.5 11.5t79 43t48.5 74.5t34 119h67v-582h-67q-22 151 -80 207t-205 56v-603h201 q67 0 121 9.5t93.5 25t71 43.5t52 56.5t38.5 73t29.5 83.5t24.5 97h63l-12 -449h-1196v61h170v529h-397q-9 -24 -64.5 -145t-105 -230t-49.5 -121q0 -11 10 -21t20 -10h113v-63h-383zM537 651h362v656h-45q-29 -61 -143.5 -294.5t-173.5 -361.5z" />
<glyph unicode="&#xc7;" horiz-adv-x="1366" d="M109 696q0 77 31 171t90.5 187.5t137 170.5t180.5 125.5t210 48.5q193 0 332 -111l69 80h70v-381h-60q-33 80 -65.5 136.5t-80 108.5t-112.5 78.5t-147 26.5q-52 0 -85.5 -7t-65 -30.5t-49 -66t-31.5 -114.5t-19.5 -174.5t-5.5 -248.5q0 -424 39.5 -544.5t224.5 -120.5 q85 0 153.5 28.5t118 81.5t84 117.5t60.5 147.5h69v-406h-73l-80 76q-159 -104 -320 -107l-45 -100q29 10 72 10q79 0 128.5 -37t49.5 -114q0 -51 -28 -87t-74 -54t-90.5 -25.5t-91.5 -7.5q-37 0 -90.5 11t-90.5 25l33 76q58 -26 148 -26q37 0 64.5 23t27.5 58 q0 36 -25.5 55t-62.5 19t-64 -8l-20 16l75 172q-121 14 -229.5 76t-188.5 156t-126.5 221.5t-46.5 267.5z" />
<glyph unicode="&#xc8;" horiz-adv-x="1366" d="M82 0v61h164v1246h-146v61h1121l12 -369h-70q-65 174 -146.5 241t-234.5 67h-192v-572q76 0 123 11.5t79 43t48.5 74.5t33.5 119h68v-582h-68q-22 152 -79.5 207.5t-204.5 55.5v-603h201q67 0 121 9.5t93.5 25t71 43.5t52 56.5t38.5 73t29.5 83.5t24.5 97h63l-12 -449 h-1190zM358 1866q0 37 27 63.5t64 26.5q26 0 49.5 -8.5t46 -28t36 -33.5t36.5 -43t32 -39l199 -227h-125l-281 180q-29 19 -42 29t-27.5 32t-14.5 48z" />
<glyph unicode="&#xc9;" horiz-adv-x="1366" d="M82 0v61h164v1246h-146v61h1121l12 -369h-70q-65 174 -146.5 241t-234.5 67h-192v-572q76 0 123 11.5t79 43t48.5 74.5t33.5 119h68v-582h-68q-22 152 -79.5 207.5t-204.5 55.5v-603h201q67 0 121 9.5t93.5 25t71 43.5t52 56.5t38.5 73t29.5 83.5t24.5 97h63l-12 -449 h-1190zM520 1577l199 227q8 10 32 39t37.5 43t36 33.5t46 28t49.5 8.5q37 0 63.5 -26.5t26.5 -63.5q0 -26 -14.5 -48t-27.5 -32t-42 -29l-281 -180h-125z" />
<glyph unicode="&#xca;" horiz-adv-x="1366" d="M82 0v61h164v1246h-146v61h1121l12 -369h-70q-65 174 -146.5 241t-234.5 67h-192v-572q76 0 123 11.5t79 43t48.5 74.5t33.5 119h68v-582h-68q-22 152 -79.5 207.5t-204.5 55.5v-603h201q67 0 121 9.5t93.5 25t71 43.5t52 56.5t38.5 73t29.5 83.5t24.5 97h63l-12 -449 h-1190zM340 1569l248 356h190l252 -356l-4 -4h-115l-227 200l-235 -200h-105z" />
<glyph unicode="&#xcb;" horiz-adv-x="1366" d="M82 0v61h164v1246h-146v61h1121l12 -369h-70q-65 174 -146.5 241t-234.5 67h-192v-572q76 0 123 11.5t79 43t48.5 74.5t33.5 119h68v-582h-68q-22 152 -79.5 207.5t-204.5 55.5v-603h201q67 0 121 9.5t93.5 25t71 43.5t52 56.5t38.5 73t29.5 83.5t24.5 97h63l-12 -449 h-1190zM338 1669q0 53 37.5 93t89.5 40q54 0 93.5 -39t39.5 -94t-39 -94t-94 -39q-52 0 -89.5 40.5t-37.5 92.5zM770 1669q0 53 37.5 93t89.5 40q54 0 93.5 -39t39.5 -94t-39 -94t-94 -39q-52 0 -89.5 40.5t-37.5 92.5z" />
<glyph unicode="&#xcc;" horiz-adv-x="796" d="M66 0v61h151v1246h-151v61h667v-61h-172v-1246h172v-61h-667zM74 1866q0 37 26.5 63.5t63.5 26.5q26 0 49.5 -8.5t46 -28t36 -33.5t37.5 -43t32 -39l198 -227h-125l-280 180q-29 19 -42 29t-27.5 32t-14.5 48z" />
<glyph unicode="&#xcd;" horiz-adv-x="796" d="M66 0v61h151v1246h-151v61h667v-61h-172v-1246h172v-61h-667zM236 1577l198 227q8 10 32 39t37.5 43t36 33.5t46 28t49.5 8.5q37 0 63.5 -26.5t26.5 -63.5q0 -26 -14.5 -48t-27.5 -32t-42 -29l-281 -180h-124z" />
<glyph unicode="&#xce;" horiz-adv-x="796" d="M55 1569l248 356h191l251 -356l-4 -4h-114l-228 200l-235 -200h-105zM66 0v61h151v1246h-151v61h667v-61h-172v-1246h172v-61h-667z" />
<glyph unicode="&#xcf;" horiz-adv-x="796" d="M53 1669q0 53 37.5 93t89.5 40q54 0 93.5 -39t39.5 -94t-38.5 -94t-94.5 -39q-52 0 -89.5 40.5t-37.5 92.5zM66 0v61h151v1246h-151v61h667v-61h-172v-1246h172v-61h-667zM485 1669q0 53 37.5 93t89.5 40q54 0 93.5 -39t39.5 -94t-38.5 -94t-94.5 -39q-52 0 -89.5 40.5 t-37.5 92.5z" />
<glyph unicode="&#xd0;" horiz-adv-x="1593" d="M86 702v80h158v525h-154v61h762q131 0 249.5 -55t203 -146.5t134.5 -215.5t50 -257q0 -134 -36 -246t-94.5 -188t-136.5 -131t-158.5 -83t-164.5 -36q-113 -10 -207 -10h-602v61h154v641h-158zM588 61h194q127 0 195 49t96 142q23 75 23 203v481q0 165 -39 250 q-30 65 -91.5 93t-183.5 28h-194v-525h248v-80h-248v-641z" />
<glyph unicode="&#xd1;" horiz-adv-x="1478" d="M61 0v61h99q48 3 60.5 28t12.5 79v1012q0 13 0.5 34t0.5 28.5t-1.5 21t-5.5 18t-11 11.5t-19 8.5t-28.5 3.5t-39.5 2h-68v61h541l576 -811v690q0 28 -45 44t-91 16h-57v61h432v-61h-86q-92 0 -92 -60v-1278h-47l-877 1219v-1051q0 -70 80 -76h117v-61h-451zM369 1546 q15 107 77 181.5t164 74.5q66 0 170 -49q104 -51 142 -51q23 0 40 8t29.5 24t20 30.5t16.5 37.5h88q-61 -258 -248 -258q-70 0 -174 49q-100 49 -147 49q-32 0 -59 -28.5t-33 -67.5h-86z" />
<glyph unicode="&#xd2;" horiz-adv-x="1593" d="M96 698q0 134 47.5 251t123 197.5t169 139t186.5 86t175 27.5q83 0 176 -27.5t187 -86t169 -139t122.5 -197.5t47.5 -251q0 -199 -91 -366t-252.5 -265t-358.5 -98q-147 0 -277.5 57.5t-223 155.5t-146.5 232.5t-54 283.5zM473 1866q0 37 26.5 63.5t63.5 26.5 q26 0 49.5 -8.5t46 -28t36 -33.5t37.5 -43t32 -39l199 -227h-125l-281 180q-29 19 -42 29t-27.5 32t-14.5 48zM502 539q0 -72 0.5 -118t3 -98t7 -82t12.5 -64t19 -52t28 -37.5t37.5 -28t49 -16t61.5 -10t77 -2.5q73 0 120 6.5t82 32t52.5 54.5t28 95.5t12.5 132.5t2 187v344 q0 188 -28.5 285t-89.5 133t-179 36t-178.5 -36t-88.5 -133t-28 -285v-344z" />
<glyph unicode="&#xd3;" horiz-adv-x="1593" d="M96 698q0 134 47.5 251t123 197.5t169 139t186.5 86t175 27.5q83 0 176 -27.5t187 -86t169 -139t122.5 -197.5t47.5 -251q0 -199 -91 -366t-252.5 -265t-358.5 -98q-147 0 -277.5 57.5t-223 155.5t-146.5 232.5t-54 283.5zM502 539q0 -72 0.5 -118t3 -98t7 -82t12.5 -64 t19 -52t28 -37.5t37.5 -28t49 -16t61.5 -10t77 -2.5q73 0 120 6.5t82 32t52.5 54.5t28 95.5t12.5 132.5t2 187v344q0 188 -28.5 285t-89.5 133t-179 36t-178.5 -36t-88.5 -133t-28 -285v-344zM635 1577l199 227q9 10 32 39t36.5 43t36 33.5t46 28t49.5 8.5q37 0 63.5 -26.5 t26.5 -63.5q0 -26 -14.5 -48t-27.5 -32t-42 -29l-280 -180h-125z" />
<glyph unicode="&#xd4;" horiz-adv-x="1593" d="M96 698q0 134 47.5 251t123 197.5t169 139t186.5 86t175 27.5q83 0 176 -27.5t187 -86t169 -139t122.5 -197.5t47.5 -251q0 -199 -91 -366t-252.5 -265t-358.5 -98q-147 0 -277.5 57.5t-223 155.5t-146.5 232.5t-54 283.5zM455 1569l247 356h191l252 -356l-4 -4h-115 l-227 200l-236 -200h-104zM502 539q0 -72 0.5 -118t3 -98t7 -82t12.5 -64t19 -52t28 -37.5t37.5 -28t49 -16t61.5 -10t77 -2.5q73 0 120 6.5t82 32t52.5 54.5t28 95.5t12.5 132.5t2 187v344q0 188 -28.5 285t-89.5 133t-179 36t-178.5 -36t-88.5 -133t-28 -285v-344z" />
<glyph unicode="&#xd5;" horiz-adv-x="1593" d="M96 698q0 134 47.5 251t123 197.5t169 139t186.5 86t175 27.5q83 0 176 -27.5t187 -86t169 -139t122.5 -197.5t47.5 -251q0 -199 -91 -366t-252.5 -265t-358.5 -98q-147 0 -277.5 57.5t-223 155.5t-146.5 232.5t-54 283.5zM426 1546q15 107 77.5 181.5t164.5 74.5 q66 0 170 -49q104 -51 141 -51q23 0 40 8t29.5 24t20 30.5t16.5 37.5h89q-61 -258 -248 -258q-70 0 -174 49q-100 49 -148 49q-32 0 -59 -28.5t-33 -67.5h-86zM502 539q0 -72 0.5 -118t3 -98t7 -82t12.5 -64t19 -52t28 -37.5t37.5 -28t49 -16t61.5 -10t77 -2.5q73 0 120 6.5 t82 32t52.5 54.5t28 95.5t12.5 132.5t2 187v344q0 188 -28.5 285t-89.5 133t-179 36t-178.5 -36t-88.5 -133t-28 -285v-344z" />
<glyph unicode="&#xd6;" horiz-adv-x="1593" d="M96 698q0 134 47.5 251t123 197.5t169 139t186.5 86t175 27.5q83 0 176 -27.5t187 -86t169 -139t122.5 -197.5t47.5 -251q0 -199 -91 -366t-252.5 -265t-358.5 -98q-147 0 -277.5 57.5t-223 155.5t-146.5 232.5t-54 283.5zM453 1669q0 53 37.5 93t89.5 40q54 0 93.5 -39 t39.5 -94t-38.5 -94t-94.5 -39q-52 0 -89.5 40.5t-37.5 92.5zM502 539q0 -72 0.5 -118t3 -98t7 -82t12.5 -64t19 -52t28 -37.5t37.5 -28t49 -16t61.5 -10t77 -2.5q73 0 120 6.5t82 32t52.5 54.5t28 95.5t12.5 132.5t2 187v344q0 188 -28.5 285t-89.5 133t-179 36t-178.5 -36 t-88.5 -133t-28 -285v-344zM885 1669q0 53 37.5 93t89.5 40q54 0 93.5 -39t39.5 -94t-38.5 -94t-94.5 -39q-52 0 -89.5 40.5t-37.5 92.5z" />
<glyph unicode="&#xd7;" d="M59 119l336 338l-336 338l117 116l336 -338l336 338l117 -116l-336 -338l336 -338l-117 -117l-336 338l-336 -338z" />
<glyph unicode="&#xd8;" horiz-adv-x="1593" d="M96 698q0 134 47.5 251t123 197.5t169 139t186.5 86t175 27.5q180 0 360 -113l111 160h106l-145 -209q123 -93 196.5 -229.5t73.5 -309.5q0 -199 -91 -366t-252.5 -265t-358.5 -98q-208 0 -373 109l-154 -221h-106l188 274q-121 102 -188.5 249.5t-67.5 317.5zM502 539 q0 -144 4 -189l561 807q-25 103 -87 141.5t-183 38.5q-118 0 -178.5 -36t-88.5 -133t-28 -285v-344zM518 215q20 -110 79.5 -147t199.5 -37q73 0 120 6.5t82 32t52.5 54.5t28 95.5t12.5 132.5t2 187v344q0 79 -7 151z" />
<glyph unicode="&#xd9;" horiz-adv-x="1478" d="M53 1307v61h678v-61h-172v-992q0 -75 11.5 -124t41.5 -87t85 -55t141 -18q195 -2 295 135q22 24 33 89t12.5 121t1.5 167v688q0 32 -25 54t-68 22h-92v61h432v-61h-122q-64 0 -64 -76v-842q0 -96 -15.5 -166t-64.5 -123q-60 -66 -160 -98.5t-268 -32.5q-261 0 -389.5 104 t-128.5 345v889h-162zM416 1866q0 37 26.5 63.5t63.5 26.5q26 0 49.5 -8.5t46 -28t36 -33.5t37.5 -43t32 -39l198 -227h-125l-280 180q-29 19 -42 29t-27.5 32t-14.5 48z" />
<glyph unicode="&#xda;" horiz-adv-x="1478" d="M53 1307v61h678v-61h-172v-992q0 -75 11.5 -124t41.5 -87t85 -55t141 -18q195 -2 295 135q22 24 33 89t12.5 121t1.5 167v688q0 32 -25 54t-68 22h-92v61h432v-61h-122q-64 0 -64 -76v-842q0 -96 -15.5 -166t-64.5 -123q-60 -66 -160 -98.5t-268 -32.5q-261 0 -389.5 104 t-128.5 345v889h-162zM578 1577l198 227q8 10 32 39t37.5 43t36 33.5t46 28t49.5 8.5q37 0 63.5 -26.5t26.5 -63.5q0 -26 -14.5 -48t-27.5 -32t-42 -29l-281 -180h-124z" />
<glyph unicode="&#xdb;" horiz-adv-x="1478" d="M53 1307v61h678v-61h-172v-992q0 -75 11.5 -124t41.5 -87t85 -55t141 -18q195 -2 295 135q22 24 33 89t12.5 121t1.5 167v688q0 32 -25 54t-68 22h-92v61h432v-61h-122q-64 0 -64 -76v-842q0 -96 -15.5 -166t-64.5 -123q-60 -66 -160 -98.5t-268 -32.5q-261 0 -389.5 104 t-128.5 345v889h-162zM397 1569l248 356h191l251 -356l-4 -4h-114l-228 200l-235 -200h-105z" />
<glyph unicode="&#xdc;" horiz-adv-x="1478" d="M53 1307v61h678v-61h-172v-992q0 -75 11.5 -124t41.5 -87t85 -55t141 -18q195 -2 295 135q22 24 33 89t12.5 121t1.5 167v688q0 32 -25 54t-68 22h-92v61h432v-61h-122q-64 0 -64 -76v-842q0 -96 -15.5 -166t-64.5 -123q-60 -66 -160 -98.5t-268 -32.5q-261 0 -389.5 104 t-128.5 345v889h-162zM395 1669q0 53 37.5 93t89.5 40q54 0 93.5 -39t39.5 -94t-38.5 -94t-94.5 -39q-52 0 -89.5 40.5t-37.5 92.5zM827 1669q0 53 37.5 93t89.5 40q54 0 93.5 -39t39.5 -94t-38.5 -94t-94.5 -39q-52 0 -89.5 40.5t-37.5 92.5z" />
<glyph unicode="&#xdd;" horiz-adv-x="1366" d="M12 1307v61h654v-61h-154l328 -555l260 501q12 23 -6.5 38.5t-51.5 15.5h-120v61h432v-61h-76q-45 0 -70 -20t-63 -93l-271 -526v-607h181v-61h-697v61h172v555l-393 691h-125zM582 1577l198 227q8 10 32 39t37.5 43t36 33.5t46 28t49.5 8.5q37 0 63.5 -26.5t26.5 -63.5 q0 -26 -14.5 -48t-27.5 -32t-42 -29l-280 -180h-125z" />
<glyph unicode="&#xde;" horiz-adv-x="1366" d="M78 0v61h153v1246h-153v61h682v-61h-185v-189h265q126 0 223.5 -31.5t153.5 -83.5t84 -111.5t28 -123.5q0 -68 -22.5 -125t-59.5 -96t-90 -69t-108 -47.5t-119.5 -28.5t-119.5 -15t-112 -4h-123v-322h185v-61h-682zM575 444h142q67 0 107 7t70 27t42 57t12 98v235 q0 61 -12 98t-42 57t-70 27t-107 7h-142v-613z" />
<glyph unicode="&#xdf;" horiz-adv-x="1138" d="M20 0v61h111v920q0 181 119.5 284t324.5 103q88 0 162.5 -21t123 -53.5t83 -73.5t49.5 -80t15 -73q0 -63 -17.5 -113t-45.5 -82.5t-73.5 -58.5t-90.5 -41t-107 -29v-4q92 -11 163.5 -36.5t127.5 -70.5t86 -116t30 -166q0 -71 -23.5 -137.5t-67 -121t-114 -87.5 t-157.5 -33q-92 0 -165 48t-73 135q0 45 28.5 80.5t72.5 35.5q43 0 67.5 -25.5t24.5 -68.5q0 -30 -14.5 -54t-29 -40t-14.5 -25q0 -28 50 -28q44 0 74 34.5t30 77.5v353q0 122 -53 170.5t-178 48.5q-13 0 -20 12t-5.5 24t10.5 13q97 9 125 19q67 26 68 110v270 q0 74 -40.5 112t-115.5 38q-35 0 -60.5 -9.5t-41 -29.5t-25.5 -40.5t-14 -52.5t-5 -53.5t-1 -56.5v-1069h-394z" />
<glyph unicode="&#xe0;" d="M90 160q0 69 37.5 123t93.5 86.5t129.5 54t137 30t124.5 9.5v137q0 85 -7 108q-16 51 -91 60q-20 2 -45 2q-29 0 -69 -12.5t-40 -36.5q0 -9 21 -43q20 -32 20 -51q0 -67 -33.5 -105.5t-97.5 -38.5q-56 0 -93.5 33.5t-37.5 89.5q0 57 36 101.5t91.5 68.5t112 35.5 t108.5 11.5q94 0 169.5 -12.5t119 -33t66 -43.5t22.5 -46v-498q0 -20 1.5 -33.5t7 -29t18.5 -23.5t33 -8q11 0 28 9.5t23 19.5l37 -39q-41 -64 -90 -90.5t-123 -26.5q-62 0 -114.5 44t-68.5 98q-56 -65 -130.5 -103.5t-155.5 -38.5q-92 0 -166 51t-74 140zM188 1309 q0 37 27 63.5t64 26.5q26 0 49.5 -8.5t46 -28t36 -33.5t36.5 -43t32 -39l199 -227h-125l-281 180q-29 19 -42 29t-27.5 32t-14.5 48zM352 248q0 -60 31 -111t88 -51q66 0 103.5 36.5t37.5 82.5v209q-42 -2 -70.5 -5.5t-68 -14t-63 -27t-41 -47t-17.5 -72.5z" />
<glyph unicode="&#xe1;" d="M90 160q0 69 37.5 123t93.5 86.5t129.5 54t137 30t124.5 9.5v137q0 85 -7 108q-16 51 -91 60q-20 2 -45 2q-29 0 -69 -12.5t-40 -36.5q0 -9 21 -43q20 -32 20 -51q0 -67 -33.5 -105.5t-97.5 -38.5q-56 0 -93.5 33.5t-37.5 89.5q0 57 36 101.5t91.5 68.5t112 35.5 t108.5 11.5q94 0 169.5 -12.5t119 -33t66 -43.5t22.5 -46v-498q0 -20 1.5 -33.5t7 -29t18.5 -23.5t33 -8q11 0 28 9.5t23 19.5l37 -39q-41 -64 -90 -90.5t-123 -26.5q-62 0 -114.5 44t-68.5 98q-56 -65 -130.5 -103.5t-155.5 -38.5q-92 0 -166 51t-74 140zM350 1020l199 227 q8 10 32 39t37.5 43t36 33.5t46 28t49.5 8.5q37 0 63.5 -26.5t26.5 -63.5q0 -26 -14.5 -48t-27.5 -32t-42 -29l-281 -180h-125zM352 248q0 -60 31 -111t88 -51q66 0 103.5 36.5t37.5 82.5v209q-42 -2 -70.5 -5.5t-68 -14t-63 -27t-41 -47t-17.5 -72.5z" />
<glyph unicode="&#xe2;" d="M90 160q0 69 37.5 123t93.5 86.5t129.5 54t137 30t124.5 9.5v137q0 85 -7 108q-16 51 -91 60q-20 2 -45 2q-29 0 -69 -12.5t-40 -36.5q0 -9 21 -43q20 -32 20 -51q0 -67 -33.5 -105.5t-97.5 -38.5q-56 0 -93.5 33.5t-37.5 89.5q0 57 36 101.5t91.5 68.5t112 35.5 t108.5 11.5q94 0 169.5 -12.5t119 -33t66 -43.5t22.5 -46v-498q0 -20 1.5 -33.5t7 -29t18.5 -23.5t33 -8q11 0 28 9.5t23 19.5l37 -39q-41 -64 -90 -90.5t-123 -26.5q-62 0 -114.5 44t-68.5 98q-56 -65 -130.5 -103.5t-155.5 -38.5q-92 0 -166 51t-74 140zM170 1012l248 356 h190l252 -356l-4 -4h-115l-227 200l-235 -200h-105zM352 248q0 -60 31 -111t88 -51q66 0 103.5 36.5t37.5 82.5v209q-42 -2 -70.5 -5.5t-68 -14t-63 -27t-41 -47t-17.5 -72.5z" />
<glyph unicode="&#xe3;" d="M90 160q0 69 37.5 123t93.5 86.5t129.5 54t137 30t124.5 9.5v137q0 85 -7 108q-16 51 -91 60q-20 2 -45 2q-29 0 -69 -12.5t-40 -36.5q0 -9 21 -43q20 -32 20 -51q0 -67 -33.5 -105.5t-97.5 -38.5q-56 0 -93.5 33.5t-37.5 89.5q0 57 36 101.5t91.5 68.5t112 35.5 t108.5 11.5q94 0 169.5 -12.5t119 -33t66 -43.5t22.5 -46v-498q0 -20 1.5 -33.5t7 -29t18.5 -23.5t33 -8q11 0 28 9.5t23 19.5l37 -39q-41 -64 -90 -90.5t-123 -26.5q-62 0 -114.5 44t-68.5 98q-56 -65 -130.5 -103.5t-155.5 -38.5q-92 0 -166 51t-74 140zM141 1030 q15 107 77.5 181.5t164.5 74.5q66 0 170 -49q104 -51 141 -51q42 0 65 26t42 74h88q-61 -258 -248 -258q-70 0 -174 49q-100 49 -148 49q-32 0 -59 -28.5t-33 -67.5h-86zM352 248q0 -60 31 -111t88 -51q66 0 103.5 36.5t37.5 82.5v209q-42 -2 -70.5 -5.5t-68 -14t-63 -27 t-41 -47t-17.5 -72.5z" />
<glyph unicode="&#xe4;" d="M90 160q0 69 37.5 123t93.5 86.5t129.5 54t137 30t124.5 9.5v137q0 85 -7 108q-16 51 -91 60q-20 2 -45 2q-29 0 -69 -12.5t-40 -36.5q0 -9 21 -43q20 -32 20 -51q0 -67 -33.5 -105.5t-97.5 -38.5q-56 0 -93.5 33.5t-37.5 89.5q0 57 36 101.5t91.5 68.5t112 35.5 t108.5 11.5q94 0 169.5 -12.5t119 -33t66 -43.5t22.5 -46v-498q0 -20 1.5 -33.5t7 -29t18.5 -23.5t33 -8q11 0 28 9.5t23 19.5l37 -39q-41 -64 -90 -90.5t-123 -26.5q-62 0 -114.5 44t-68.5 98q-56 -65 -130.5 -103.5t-155.5 -38.5q-92 0 -166 51t-74 140zM168 1153 q0 53 37.5 93t89.5 40q54 0 93.5 -39t39.5 -94t-39 -94t-94 -39q-52 0 -89.5 40.5t-37.5 92.5zM352 248q0 -60 31 -111t88 -51q66 0 103.5 36.5t37.5 82.5v209q-42 -2 -70.5 -5.5t-68 -14t-63 -27t-41 -47t-17.5 -72.5zM600 1153q0 53 37.5 93t89.5 40q54 0 93.5 -39 t39.5 -94t-39 -94t-94 -39q-52 0 -89.5 40.5t-37.5 92.5z" />
<glyph unicode="&#xe5;" d="M90 160q0 69 37.5 123t93.5 86.5t129.5 54t137 30t124.5 9.5v137q0 85 -7 108q-16 51 -91 60q-20 2 -45 2q-29 0 -69 -12.5t-40 -36.5q0 -9 21 -43q20 -32 20 -51q0 -67 -33.5 -105.5t-97.5 -38.5q-56 0 -93.5 33.5t-37.5 89.5q0 57 36 101.5t91.5 68.5t112 35.5 t108.5 11.5q94 0 169.5 -12.5t119 -33t66 -43.5t22.5 -46v-498q0 -20 1.5 -33.5t7 -29t18.5 -23.5t33 -8q11 0 28 9.5t23 19.5l37 -39q-41 -64 -90 -90.5t-123 -26.5q-62 0 -114.5 44t-68.5 98q-56 -65 -130.5 -103.5t-155.5 -38.5q-92 0 -166 51t-74 140zM295 1182 q0 88 64 152.5t153 64.5q90 0 154.5 -63.5t64.5 -153.5q0 -92 -64 -155.5t-155 -63.5q-90 0 -153.5 64.5t-63.5 154.5zM352 248q0 -60 31 -111t88 -51q66 0 103.5 36.5t37.5 82.5v209q-42 -2 -70.5 -5.5t-68 -14t-63 -27t-41 -47t-17.5 -72.5zM393 1182q0 -47 36 -83t83 -36 t84 36.5t37 82.5q0 47 -36.5 81.5t-84.5 34.5t-83.5 -34.5t-35.5 -81.5z" />
<glyph unicode="&#xe6;" horiz-adv-x="1478" d="M74 158q0 270 512 309v225q0 27 -13 44t-37 23.5t-40.5 8.5t-40.5 2q-115 0 -115 -41q0 -12 22 -45q21 -35 21 -72q0 -59 -39.5 -91t-97.5 -32q-51 0 -85 39t-34 90q0 59 35.5 102t93 64t112 30t109.5 9q89 0 152 -20.5t131 -73.5q87 94 239 94q93 0 185.5 -43 t155.5 -124t63 -177q0 -49 -23 -49h-524v-264q0 -77 41.5 -110t124.5 -33q124 0 213 61t123 178l47 -16q-38 -138 -143.5 -207.5t-253.5 -69.5q-75 0 -144.5 15t-138.5 55.5t-107 103.5q-43 -81 -127.5 -127.5t-179.5 -46.5q-97 0 -167 47.5t-70 141.5zM330 240 q0 -70 38 -112t105 -42q47 0 80 43.5t33 108.5v176q-15 -2 -49 -4.5t-48.5 -4.5t-42 -7t-40 -11.5t-30.5 -19.5t-26 -29.5t-14 -41t-6 -56.5zM856 483h268v201q0 86 -143 86q-63 0 -94 -25.5t-31 -68.5v-193z" />
<glyph unicode="&#xe7;" d="M102 387q0 122 66.5 223.5t173 157t227.5 55.5q80 0 145 -23.5t102 -58.5t57 -72t20 -69q0 -64 -40.5 -102.5t-102.5 -38.5q-58 0 -97 41t-39 100q0 21 11.5 46t23.5 34q27 18 27 45q0 45 -109 45q-38 0 -62.5 -7t-46.5 -29t-32 -67t-10 -116v-264q0 -160 30 -212 t127 -52q114 0 185.5 60t120.5 175l45 -25q-40 -116 -130.5 -187t-209.5 -75l-45 -102q29 10 71 10q79 0 128.5 -37t49.5 -114q0 -51 -28 -87t-74 -54t-90.5 -25.5t-91.5 -7.5q-37 0 -90 11t-90 25l32 76q58 -26 148 -26q37 0 64.5 23t27.5 58q0 36 -25.5 55t-62.5 19 t-64 -8l-20 16l76 172q-159 21 -278.5 137.5t-119.5 274.5z" />
<glyph unicode="&#xe8;" d="M72 391q0 101 42 184.5t110.5 136.5t153 82t173.5 29q102 0 192.5 -43t147.5 -125.5t57 -185.5q0 -12 -5.5 -20t-12 -12t-18.5 -6t-20 -2t-22 0.5t-18 0.5h-449v-264q0 -77 41.5 -110t124.5 -33q124 0 213 61t123 178l47 -16q-38 -138 -143.5 -207.5t-253.5 -69.5 q-97 0 -183 27t-153.5 78.5t-107 133.5t-39.5 183zM188 1309q0 37 27 63.5t64 26.5q26 0 49.5 -8.5t46 -28t36 -33.5t36.5 -43t32 -39l199 -227h-125l-281 180q-29 19 -42 29t-27.5 32t-14.5 48zM403 483h269v201q0 86 -144 86q-63 0 -94 -25.5t-31 -68.5v-193z" />
<glyph unicode="&#xe9;" d="M72 391q0 101 42 184.5t110.5 136.5t153 82t173.5 29q102 0 192.5 -43t147.5 -125.5t57 -185.5q0 -12 -5.5 -20t-12 -12t-18.5 -6t-20 -2t-22 0.5t-18 0.5h-449v-264q0 -77 41.5 -110t124.5 -33q124 0 213 61t123 178l47 -16q-38 -138 -143.5 -207.5t-253.5 -69.5 q-97 0 -183 27t-153.5 78.5t-107 133.5t-39.5 183zM350 1020l199 227q8 10 32 39t37.5 43t36 33.5t46 28t49.5 8.5q37 0 63.5 -26.5t26.5 -63.5q0 -26 -14.5 -48t-27.5 -32t-42 -29l-281 -180h-125zM403 483h269v201q0 86 -144 86q-63 0 -94 -25.5t-31 -68.5v-193z" />
<glyph unicode="&#xea;" d="M72 391q0 101 42 184.5t110.5 136.5t153 82t173.5 29q102 0 192.5 -43t147.5 -125.5t57 -185.5q0 -12 -5.5 -20t-12 -12t-18.5 -6t-20 -2t-22 0.5t-18 0.5h-449v-264q0 -77 41.5 -110t124.5 -33q124 0 213 61t123 178l47 -16q-38 -138 -143.5 -207.5t-253.5 -69.5 q-97 0 -183 27t-153.5 78.5t-107 133.5t-39.5 183zM170 1012l248 356h190l252 -356l-4 -4h-115l-227 200l-235 -200h-105zM403 483h269v201q0 86 -144 86q-63 0 -94 -25.5t-31 -68.5v-193z" />
<glyph unicode="&#xeb;" d="M72 391q0 101 42 184.5t110.5 136.5t153 82t173.5 29q102 0 192.5 -43t147.5 -125.5t57 -185.5q0 -12 -5.5 -20t-12 -12t-18.5 -6t-20 -2t-22 0.5t-18 0.5h-449v-264q0 -77 41.5 -110t124.5 -33q124 0 213 61t123 178l47 -16q-38 -138 -143.5 -207.5t-253.5 -69.5 q-97 0 -183 27t-153.5 78.5t-107 133.5t-39.5 183zM168 1153q0 53 37.5 93t89.5 40q54 0 93.5 -39t39.5 -94t-39 -94t-94 -39q-52 0 -89.5 40.5t-37.5 92.5zM403 483h269v201q0 86 -144 86q-63 0 -94 -25.5t-31 -68.5v-193zM600 1153q0 53 37.5 93t89.5 40q54 0 93.5 -39 t39.5 -94t-39 -94t-94 -39q-52 0 -89.5 40.5t-37.5 92.5z" />
<glyph unicode="&#xec;" horiz-adv-x="569" d="M-39 1309q0 37 26.5 63.5t63.5 26.5q26 0 49.5 -8.5t46 -28t36 -33.5t37.5 -43t32 -39l199 -227h-125l-281 180q-29 19 -42 29t-27.5 32t-14.5 48zM10 754v57h142q47 0 141 4t141 4v-762h125v-57h-541v57h134v697h-142z" />
<glyph unicode="&#xed;" horiz-adv-x="569" d="M10 754v57h142q47 0 141 4t141 4v-762h125v-57h-541v57h134v697h-142zM123 1020l199 227q9 10 32 39t36.5 43t36 33.5t46 28t49.5 8.5q37 0 63.5 -26.5t26.5 -63.5q0 -26 -14.5 -48t-27.5 -32t-42 -29l-280 -180h-125z" />
<glyph unicode="&#xee;" horiz-adv-x="569" d="M-57 1012l247 356h191l252 -356l-4 -4h-115l-227 200l-236 -200h-104zM10 754v57h142q47 0 141 4t141 4v-762h125v-57h-541v57h134v697h-142z" />
<glyph unicode="&#xef;" horiz-adv-x="569" d="M-59 1153q0 53 37.5 93t89.5 40q54 0 93.5 -39t39.5 -94t-38.5 -94t-94.5 -39q-52 0 -89.5 40.5t-37.5 92.5zM10 754v57h142q47 0 141 4t141 4v-762h125v-57h-541v57h134v697h-142zM373 1153q0 53 37.5 93t89.5 40q54 0 93.5 -39t39.5 -94t-38.5 -94t-94.5 -39 q-52 0 -89.5 40.5t-37.5 92.5z" />
<glyph unicode="&#xf0;" horiz-adv-x="1138" d="M78 389q0 129 72 230t183 152.5t236 51.5q99 0 160 -41q-13 88 -55 180.5t-94 163.5l-197 -108l-59 72l192 106q-43 35 -110 68t-105 41l25 63q164 -23 333 -104l189 104l55 -68l-164 -90q322 -269 322 -723q0 -77 -17.5 -150t-57 -140t-95.5 -117.5t-139 -80.5t-183 -30 q-107 0 -200 34t-156 91.5t-99 134t-36 160.5zM410 174q0 -85 40 -118t119 -33t119.5 33.5t40.5 117.5v436q0 91 -36.5 125.5t-123.5 34.5q-80 0 -119.5 -35.5t-39.5 -124.5v-436z" />
<glyph unicode="&#xf1;" horiz-adv-x="1138" d="M27 0v57h131v697h-131v57h131q46 0 137 4t137 4v-188q63 108 143.5 150t192.5 42q51 0 89.5 -8.5t72 -29t51.5 -60.5t18 -98v-570h127v-57h-512v57h111v523q0 93 -21 126t-67 33q-62 0 -110.5 -47.5t-71.5 -110t-23 -122.5v-402h109v-57h-514zM199 1030q15 107 77 181.5 t164 74.5q66 0 170 -49q104 -51 142 -51q23 0 40 8t29.5 24t20 30.5t16.5 37.5h88q-61 -258 -248 -258q-70 0 -174 49q-100 49 -147 49q-32 0 -59 -28.5t-33 -67.5h-86z" />
<glyph unicode="&#xf2;" horiz-adv-x="1138" d="M78 389q0 129 72 230t183 152.5t236 51.5t236 -51.5t183.5 -152.5t72.5 -230q0 -128 -68.5 -225t-179 -146t-244.5 -49q-107 0 -200 34t-156 91.5t-99 134t-36 160.5zM246 1309q0 37 26.5 63.5t63.5 26.5q26 0 49.5 -8.5t46 -28t36 -33.5t37.5 -43t32 -39l198 -227h-125 l-280 180q-29 19 -42 29t-27.5 32t-14.5 48zM410 174q0 -85 40 -118t119 -33t119.5 33.5t40.5 117.5v436q0 96 -30 128t-130 32q-94 0 -126.5 -33t-32.5 -127v-436z" />
<glyph unicode="&#xf3;" horiz-adv-x="1138" d="M78 389q0 129 72 230t183 152.5t236 51.5t236 -51.5t183.5 -152.5t72.5 -230q0 -128 -68.5 -225t-179 -146t-244.5 -49q-107 0 -200 34t-156 91.5t-99 134t-36 160.5zM408 1020l198 227q8 10 32 39t37.5 43t36 33.5t46 28t49.5 8.5q37 0 63.5 -26.5t26.5 -63.5 q0 -26 -14.5 -48t-27.5 -32t-42 -29l-281 -180h-124zM410 174q0 -85 40 -118t119 -33t119.5 33.5t40.5 117.5v436q0 96 -30 128t-130 32q-94 0 -126.5 -33t-32.5 -127v-436z" />
<glyph unicode="&#xf4;" horiz-adv-x="1138" d="M78 389q0 129 72 230t183 152.5t236 51.5t236 -51.5t183.5 -152.5t72.5 -230q0 -128 -68.5 -225t-179 -146t-244.5 -49q-107 0 -200 34t-156 91.5t-99 134t-36 160.5zM227 1012l248 356h191l252 -356l-5 -4h-114l-228 200l-235 -200h-105zM410 174q0 -85 40 -118t119 -33 t119.5 33.5t40.5 117.5v436q0 96 -30 128t-130 32q-94 0 -126.5 -33t-32.5 -127v-436z" />
<glyph unicode="&#xf5;" horiz-adv-x="1138" d="M78 389q0 129 72 230t183 152.5t236 51.5t236 -51.5t183.5 -152.5t72.5 -230q0 -128 -68.5 -225t-179 -146t-244.5 -49q-107 0 -200 34t-156 91.5t-99 134t-36 160.5zM199 1030q15 107 77 181.5t164 74.5q66 0 170 -49q104 -51 142 -51q23 0 40 8t29.5 24t20 30.5 t16.5 37.5h88q-61 -258 -248 -258q-70 0 -174 49q-100 49 -147 49q-32 0 -59 -28.5t-33 -67.5h-86zM410 174q0 -85 40 -118t119 -33t119.5 33.5t40.5 117.5v436q0 96 -30 128t-130 32q-94 0 -126.5 -33t-32.5 -127v-436z" />
<glyph unicode="&#xf6;" horiz-adv-x="1138" d="M78 389q0 129 72 230t183 152.5t236 51.5t236 -51.5t183.5 -152.5t72.5 -230q0 -128 -68.5 -225t-179 -146t-244.5 -49q-107 0 -200 34t-156 91.5t-99 134t-36 160.5zM225 1153q0 53 37.5 93t89.5 40q54 0 93.5 -39t39.5 -94t-38.5 -94t-94.5 -39q-52 0 -89.5 40.5 t-37.5 92.5zM410 174q0 -85 40 -118t119 -33t119.5 33.5t40.5 117.5v436q0 96 -30 128t-130 32q-94 0 -126.5 -33t-32.5 -127v-436zM657 1153q0 53 37.5 93t89.5 40q54 0 94 -39t40 -94t-39 -94t-95 -39q-52 0 -89.5 40.5t-37.5 92.5z" />
<glyph unicode="&#xf7;" d="M59 373v166h908v-166h-908zM387 135q0 53 37.5 93t89.5 40q54 0 93.5 -39t39.5 -94t-38.5 -94t-94.5 -39q-52 0 -89.5 40.5t-37.5 92.5zM387 776q0 53 37.5 93t89.5 40q54 0 93.5 -39t39.5 -94q0 -56 -38.5 -94.5t-94.5 -38.5q-52 0 -89.5 40.5t-37.5 92.5z" />
<glyph unicode="&#xf8;" horiz-adv-x="1138" d="M78 389q0 129 72 230t183 152.5t236 51.5q103 0 193 -35l119 197h90l-137 -229q103 -55 165 -150.5t62 -216.5q0 -128 -68.5 -225t-179 -146t-244.5 -49q-106 0 -188 33l-131 -217h-90l149 248q-108 54 -169.5 148.5t-61.5 207.5zM410 201l307 512q-13 32 -47 44.5 t-101 12.5q-94 0 -126.5 -33t-32.5 -127v-409zM430 84q32 -61 139 -61q79 0 119.5 33.5t40.5 117.5v408z" />
<glyph unicode="&#xf9;" horiz-adv-x="1138" d="M6 754v57h141q48 0 142 4t141 4v-571v-30v-47t2 -38.5t7 -34.5t14 -23.5t24 -17t35 -4.5q53 0 102 43.5t74 94.5t25 85v478h-142v57h142q47 0 141 4t141 4v-762h138v-57h-138q-63 0 -141 -10q-117 -10 -141 -10v176h-4q-35 -94 -120 -140.5t-194 -46.5q-53 0 -92 8 t-65.5 18t-44 34.5t-27 43t-14 59t-5 66t-0.5 80.5v9v467h-141zM246 1309q0 37 26.5 63.5t63.5 26.5q26 0 49.5 -8.5t46 -28t36 -33.5t37.5 -43t32 -39l198 -227h-125l-280 180q-29 19 -42 29t-27.5 32t-14.5 48z" />
<glyph unicode="&#xfa;" horiz-adv-x="1138" d="M6 754v57h141q48 0 142 4t141 4v-571v-30v-47t2 -38.5t7 -34.5t14 -23.5t24 -17t35 -4.5q53 0 102 43.5t74 94.5t25 85v478h-142v57h142q47 0 141 4t141 4v-762h138v-57h-138q-63 0 -141 -10q-117 -10 -141 -10v176h-4q-35 -94 -120 -140.5t-194 -46.5q-53 0 -92 8 t-65.5 18t-44 34.5t-27 43t-14 59t-5 66t-0.5 80.5v9v467h-141zM408 1020l198 227q8 10 32 39t37.5 43t36 33.5t46 28t49.5 8.5q37 0 63.5 -26.5t26.5 -63.5q0 -26 -14.5 -48t-27.5 -32t-42 -29l-281 -180h-124z" />
<glyph unicode="&#xfb;" horiz-adv-x="1138" d="M6 754v57h141q48 0 142 4t141 4v-571v-30v-47t2 -38.5t7 -34.5t14 -23.5t24 -17t35 -4.5q53 0 102 43.5t74 94.5t25 85v478h-142v57h142q47 0 141 4t141 4v-762h138v-57h-138q-63 0 -141 -10q-117 -10 -141 -10v176h-4q-35 -94 -120 -140.5t-194 -46.5q-53 0 -92 8 t-65.5 18t-44 34.5t-27 43t-14 59t-5 66t-0.5 80.5v9v467h-141zM227 1012l248 356h191l252 -356l-5 -4h-114l-228 200l-235 -200h-105z" />
<glyph unicode="&#xfc;" horiz-adv-x="1138" d="M6 754v57h141q48 0 142 4t141 4v-571v-30v-47t2 -38.5t7 -34.5t14 -23.5t24 -17t35 -4.5q53 0 102 43.5t74 94.5t25 85v478h-142v57h142q47 0 141 4t141 4v-762h138v-57h-138q-63 0 -141 -10q-117 -10 -141 -10v176h-4q-35 -94 -120 -140.5t-194 -46.5q-53 0 -92 8 t-65.5 18t-44 34.5t-27 43t-14 59t-5 66t-0.5 80.5v9v467h-141zM225 1153q0 53 37.5 93t89.5 40q54 0 93.5 -39t39.5 -94t-38.5 -94t-94.5 -39q-52 0 -89.5 40.5t-37.5 92.5zM657 1153q0 53 37.5 93t89.5 40q54 0 94 -39t40 -94t-39 -94t-95 -39q-52 0 -89.5 40.5 t-37.5 92.5z" />
<glyph unicode="&#xfd;" d="M35 754v57h493v-57h-96l199 -443h8l156 381q12 31 -6 46.5t-46 15.5h-75v57h323v-57h-63q-12 0 -22.5 -5.5t-19.5 -20.5t-13.5 -22t-13 -29.5t-9.5 -23.5l-406 -942q-71 -162 -200 -162q-51 0 -91 39t-40 88q0 55 33 89t85 34q49 0 84 -39q11 -12 16 -16.5t16 -10t18 0.5 q12 5 21 11.5t16 18.5l10.5 18t10 22.5t7.5 19.5l74 174l-379 756h-90zM350 1020l199 227q8 10 32 39t37.5 43t36 33.5t46 28t49.5 8.5q37 0 63.5 -26.5t26.5 -63.5q0 -26 -14.5 -48t-27.5 -32t-42 -29l-281 -180h-125z" />
<glyph unicode="&#xfe;" horiz-adv-x="1138" d="M43 1321v57h141q118 0 283 21v-760h4q51 96 107 140t153 44q85 0 157 -36.5t120 -96.5t75 -137.5t27 -159.5q0 -106 -48 -203t-136.5 -159t-196.5 -62q-77 0 -147.5 41.5t-108.5 108.5h-6v-502h172v-57h-559v57h104v1704h-141zM467 264q0 -43 30 -99t84.5 -99t112.5 -43 q97 0 97 102v508q0 137 -103 137q-54 0 -107 -50t-83.5 -113t-30.5 -109v-234z" />
<glyph unicode="&#xff;" d="M35 754v57h493v-57h-96l199 -443h8l156 381q12 31 -6 46.5t-46 15.5h-75v57h323v-57h-63q-12 0 -22.5 -5.5t-19.5 -20.5t-13.5 -22t-13 -29.5t-9.5 -23.5l-406 -942q-71 -162 -200 -162q-51 0 -91 39t-40 88q0 55 33 89t85 34q49 0 84 -39q11 -12 16 -16.5t16 -10t18 0.5 q12 5 21 11.5t16 18.5l10.5 18t10 22.5t7.5 19.5l74 174l-379 756h-90zM229 1194q0 53 37.5 93t89.5 40q54 0 93.5 -39t39.5 -94q0 -56 -38.5 -94.5t-94.5 -38.5q-52 0 -89.5 40.5t-37.5 92.5zM662 1194q0 53 37 93t89 40q54 0 94 -39t40 -94t-39 -94t-95 -39 q-52 0 -89 40.5t-37 92.5z" />
<glyph unicode="&#x152;" horiz-adv-x="2162" d="M70 662q0 189 88.5 351.5t244.5 258.5t342 96h1248l12 -369h-70q-65 174 -146.5 241t-234.5 67h-192v-572q76 0 123.5 11.5t79 43t48.5 74.5t34 119h67v-582h-67q-22 151 -80 207t-205 56v-603h201q67 0 121 9.5t93.5 25t71 43.5t52 56.5t38.5 73t29.5 83.5t24.5 97h63 l-12 -449h-1194q-102 0 -182.5 10.5t-134 25.5t-105 44.5t-82.5 54t-78 68.5q-97 89 -147.5 208.5t-50.5 250.5zM469 438q0 -107 21 -182t61 -117t89.5 -60t115.5 -18q156 0 209 65t53 249v590q0 97 -9 155.5t-36.5 104t-79 64t-135.5 18.5q-144 0 -215.5 -85.5 t-73.5 -248.5v-535z" />
<glyph unicode="&#x153;" horiz-adv-x="1593" d="M63 393q0 123 67.5 223t173.5 153.5t226 53.5q59 0 105 -6.5t80.5 -21.5t50.5 -23.5t43.5 -31.5t30.5 -25q51 61 116 84.5t152 23.5q186 0 301 -99t115 -245q0 -22 -12 -33.5t-24.5 -13.5t-33.5 -2h-477v-264q0 -77 41.5 -110t124.5 -33q124 0 213 61t123 178l47 -16 q-38 -138 -144 -207.5t-254 -69.5q-166 0 -290 109q-125 -109 -332 -109q-51 0 -109.5 16.5t-118 51.5t-107.5 84t-78 120t-30 152zM395 127q0 -104 144 -104q67 0 111 25t44 79v483q0 94 -33.5 127t-117.5 33t-116 -37.5t-32 -122.5v-483zM977 483h268v201q0 86 -143 86 q-63 0 -94 -25.5t-31 -68.5v-193z" />
<glyph unicode="&#x178;" horiz-adv-x="1366" d="M12 1307v61h654v-61h-154l328 -555l260 501q12 23 -6.5 38.5t-51.5 15.5h-120v61h432v-61h-76q-45 0 -70 -20t-63 -93l-271 -526v-607h181v-61h-697v61h172v555l-393 691h-125zM338 1669q0 53 37.5 93t89.5 40q54 0 93.5 -39t39.5 -94t-39 -94t-94 -39q-52 0 -89.5 40.5 t-37.5 92.5zM770 1669q0 53 37.5 93t89.5 40q54 0 93.5 -39t39.5 -94t-39 -94t-94 -39q-52 0 -89.5 40.5t-37.5 92.5z" />
<glyph unicode="&#x2c6;" horiz-adv-x="681" d="M-2 1012l248 356h190l252 -356l-4 -4h-115l-227 200l-236 -200h-104z" />
<glyph unicode="&#x2dc;" horiz-adv-x="681" d="M-31 1071q15 107 77.5 181.5t164.5 74.5q66 0 170 -49q104 -51 141 -51q42 0 65 26t42 74h88q-61 -258 -248 -258q-70 0 -174 49q-100 49 -148 49q-32 0 -59 -28.5t-33 -67.5h-86z" />
<glyph unicode="&#x2000;" horiz-adv-x="978" />
<glyph unicode="&#x2001;" horiz-adv-x="1956" />
<glyph unicode="&#x2002;" horiz-adv-x="978" />
<glyph unicode="&#x2003;" horiz-adv-x="1956" />
<glyph unicode="&#x2004;" horiz-adv-x="652" />
<glyph unicode="&#x2005;" horiz-adv-x="489" />
<glyph unicode="&#x2006;" horiz-adv-x="326" />
<glyph unicode="&#x2007;" horiz-adv-x="326" />
<glyph unicode="&#x2008;" horiz-adv-x="244" />
<glyph unicode="&#x2009;" horiz-adv-x="391" />
<glyph unicode="&#x200a;" horiz-adv-x="108" />
<glyph unicode="&#x2010;" horiz-adv-x="681" d="M49 307v209h584v-209h-584z" />
<glyph unicode="&#x2011;" horiz-adv-x="681" d="M49 307v209h584v-209h-584z" />
<glyph unicode="&#x2012;" horiz-adv-x="681" d="M49 307v209h584v-209h-584z" />
<glyph unicode="&#x2013;" d="M0 307v209h1024v-209h-1024z" />
<glyph unicode="&#x2014;" horiz-adv-x="2048" d="M0 307v209h2048v-209h-2048z" />
<glyph unicode="&#x2018;" horiz-adv-x="681" d="M139 995q0 130 83 239.5t208 164.5l12 -51q-87 -45 -145.5 -126t-58.5 -173q0 -79 24 -107q12 54 49.5 82.5t94.5 28.5q58 0 98.5 -44t40.5 -102q0 -75 -51 -125.5t-125 -50.5q-107 0 -168.5 77.5t-61.5 186.5z" />
<glyph unicode="&#x2019;" horiz-adv-x="681" d="M139 1221q0 74 50 126t124 52q105 0 168.5 -79.5t63.5 -186.5q0 -126 -86.5 -240.5t-206.5 -161.5l-10 51q88 47 145 126t57 173q0 71 -22 107q-29 -111 -146 -111q-59 0 -98 42t-39 102z" />
<glyph unicode="&#x201a;" horiz-adv-x="681" d="M139 113q0 75 50.5 126.5t125.5 51.5q104 0 167 -80t63 -186q0 -126 -84.5 -236t-206.5 -166l-12 53q90 49 146 126.5t56 172.5q0 71 -22 105q-10 -53 -50 -82t-96 -29q-59 0 -98 43t-39 101z" />
<glyph unicode="&#x201c;" d="M39 995q0 130 83 239.5t208 164.5l12 -51q-87 -46 -146 -126.5t-59 -172.5q0 -78 25 -107q12 55 49 83t94 28q58 0 98.5 -44t40.5 -102q0 -75 -51 -125.5t-125 -50.5q-107 0 -168 77.5t-61 186.5zM580 995q0 130 82.5 239.5t207.5 164.5l13 -51q-87 -46 -146 -126.5 t-59 -172.5q0 -79 24 -107q12 54 49.5 82.5t94.5 28.5q58 0 98.5 -44t40.5 -102q0 -75 -51 -125.5t-125 -50.5q-107 0 -168 77.5t-61 186.5z" />
<glyph unicode="&#x201d;" d="M39 1221q0 74 50 126t124 52q105 0 168 -79t63 -187q0 -126 -86 -240.5t-206 -161.5l-11 51q89 47 146 126t57 173q0 71 -22 107q-29 -111 -146 -111q-59 0 -98 42t-39 102zM580 1221q0 74 50 126t124 52q105 0 168 -79t63 -187q0 -126 -86.5 -240.5t-206.5 -161.5 l-10 51q89 47 146 126t57 173q0 69 -23 107q-29 -111 -145 -111q-59 0 -98 42t-39 102z" />
<glyph unicode="&#x201e;" d="M41 113q0 75 50.5 126.5t125.5 51.5q104 0 166.5 -80t62.5 -186q0 -126 -84 -236.5t-206 -165.5l-13 53q90 49 146.5 126.5t56.5 172.5q0 71 -22 105q-10 -53 -50 -82t-96 -29q-59 0 -98 43t-39 101zM580 113q0 75 50.5 126.5t125.5 51.5q104 0 166.5 -80t62.5 -186 q0 -126 -84.5 -236t-206.5 -166l-12 53q90 49 146.5 126.5t56.5 172.5q0 69 -23 105q-10 -53 -50 -82t-95 -29q-59 0 -98 43t-39 101z" />
<glyph unicode="&#x2022;" horiz-adv-x="1269" d="M283 684q0 130 103.5 223.5t248.5 93.5t248.5 -93.5t103.5 -223.5t-103.5 -223.5t-248.5 -93.5t-248.5 93.5t-103.5 223.5z" />
<glyph unicode="&#x2026;" horiz-adv-x="2048" d="M172 137q0 67 50 117.5t118 50.5t119 -50t51 -118q0 -70 -50 -119t-120 -49q-69 0 -118.5 50t-49.5 118zM854 137q0 67 50 117.5t118 50.5t119 -50t51 -118q0 -70 -50 -119t-120 -49q-69 0 -118.5 50t-49.5 118zM1536 137q0 67 50 117.5t118 50.5t119 -50t51 -118 q0 -70 -50 -119t-120 -49q-69 0 -118.5 50t-49.5 118z" />
<glyph unicode="&#x202f;" horiz-adv-x="391" />
<glyph unicode="&#x2039;" horiz-adv-x="681" d="M150 408v14q233 195 346 301q12 7 22 2t10 -20q0 -19 -196 -293q45 -53 124 -162.5t79 -136.5q0 -8 -10 -12t-19 3q-96 87 -356 304z" />
<glyph unicode="&#x203a;" horiz-adv-x="681" d="M147 113q0 27 79 136.5t124 162.5q-196 274 -196 293q0 15 10 20t22 -2q113 -106 346 -301v-14q-260 -217 -356 -304q-9 -7 -19 -3t-10 12z" />
<glyph unicode="&#x205f;" horiz-adv-x="489" />
<glyph unicode="&#x20ac;" horiz-adv-x="1251" d="M43 741l47 111h117q24 104 75.5 196t124 162.5t170.5 111t207 40.5q193 0 291 -98l53 67h70v-340h-61q-18 61 -33.5 101.5t-43.5 85.5t-63 71t-89 43t-124 17q-115 0 -179 -86.5t-64 -253.5v-117h571l-47 -111h-524v-141h465l-45 -111h-420v-127q0 -167 64 -253t179 -86 q68 0 120 16.5t86.5 41.5t63.5 69t46 85.5t37 104.5h61v-340h-70l-51 68q-99 -99 -293 -99q-216 0 -371 145.5t-208 374.5h-154l45 111h86q-2 20 -2 64q0 23 4 77h-141z" />
<glyph unicode="&#x2122;" horiz-adv-x="1761" d="M45 1143l12 225h686l9 -225h-29q-10 31 -17 51t-18 43.5t-22.5 37.5t-28 28.5t-36.5 21t-47 10t-60 0.5v-630h94v-31h-377v31h94v630q-33 3 -60 -0.5t-47 -10t-36.5 -21t-28 -28.5t-22.5 -37.5t-18 -43.5t-17 -51h-31zM829 674v31h19.5h19t15.5 0.5t15 2.5t11.5 5 t10.5 7.5t6 11t5 15.5t1 21v567h-103v33h320l129 -420l135 420h305v-33h-92v-630h92v-31h-372v31h98v628h-4l-217 -659h-41l-215 659h-2v-565q0 -12 1 -21t5 -15.5t6.5 -11t10.5 -7.5t11 -5t15.5 -2.5t16 -0.5h20h20.5v-31h-242z" />
<glyph unicode="&#xe000;" horiz-adv-x="808" d="M0 0v809h809v-809h-809z" />
<glyph unicode="&#xfb01;" horiz-adv-x="1138" d="M12 0v61h140v693h-140v57h144q32 313 151.5 450.5t343.5 137.5q45 0 93 -10.5t94.5 -32t76 -60.5t29.5 -90q0 -59 -39 -97t-98 -38q-60 0 -100.5 49.5t-22.5 106.5q1 4 14 33.5t13 44.5q0 17 -14 25.5t-26.5 9.5t-33.5 1h-6q-48 0 -84 -20.5t-57 -51.5t-34 -74.5 t-17.5 -83t-4.5 -83.5v-217h299q45 0 139 4q90 4 138 4v-762h118v-57h-514v57h113v697h-293v-697h105v-57h-527z" />
<glyph unicode="&#xfb02;" horiz-adv-x="1138" d="M12 0v57h138v697h-134v57h134q-7 108 25.5 214t94 188.5t155 134t200.5 51.5q25 0 108 -19q71 -16 107 -10l168 29v-1342h118v-57h-508v57h107v697h-293v-697h107v-57h-527zM432 811h293v270q-41 14 -65.5 46t-24.5 75q0 38 24 72q24 32 9 49.5t-58 17.5 q-63 0 -120.5 -75t-57.5 -197v-258z" />
</font>
</defs>
</svg>
